<svg width="960" height="636" viewBox="0 0 960 636" fill="none" xmlns="http://www.w3.org/2000/svg">
<path fill-rule="evenodd" clip-rule="evenodd" d="M486.847 0.471687C560.572 -0.260242 636.015 11.1653 700.396 37.2244C764.076 62.9999 811.436 104.043 849.685 147.335C886.176 188.638 899.093 235.636 916.683 282.028C935.137 330.701 971.365 379.737 956.172 428.193C940.903 476.896 883.858 512.801 833.281 548.036C784.497 582.023 733.117 617.208 665.694 630.559C599.948 643.577 530.198 624.693 461.151 621.723C392.263 618.761 318.407 635.805 257.077 612.986C195.745 590.166 173.151 538.687 132.919 499.597C93.4642 461.263 42.3066 428.017 21.1237 383.735C-1.09443 337.289 -6.3551 287.27 8.90373 240.348C24.3671 192.798 60.1355 149.286 108.758 114.257C156.552 79.824 221.294 60.5575 285.127 41.3471C349.926 21.846 415.237 1.18262 486.847 0.471687Z" fill="black"/>
</svg>
