<svg width="69" height="69" viewBox="0 0 69 69" fill="none" xmlns="http://www.w3.org/2000/svg">
<g clip-path="url(#clip0_12331_424)">
<path d="M68.9563 34.5122C68.9563 34.4937 68.957 34.4756 68.957 34.4571C68.957 25.2533 65.3728 16.6004 58.8647 10.0922C52.3567 3.58408 43.7037 0 34.4999 0C25.296 0 16.6431 3.58408 10.135 10.0923C3.62694 16.6004 0.0427246 25.2533 0.0427246 34.4571C0.0427246 34.4756 0.0433976 34.4937 0.0433976 34.5122C0.0433976 34.5224 0.0427246 34.5326 0.0427246 34.5429C0.0427246 34.5789 0.0447436 34.6147 0.0450128 34.6508C0.0950833 43.7821 3.6727 52.3596 10.135 58.8221C16.2455 64.9324 24.2468 68.465 32.8195 68.8739C33.3743 68.956 33.9347 69 34.5 69C35.0653 69 35.6255 68.956 36.1804 68.8739C44.7531 68.465 52.7545 64.9324 58.8649 58.8221C65.3273 52.3598 68.9049 43.7822 68.9548 34.6508C68.9552 34.6147 68.9573 34.5789 68.9573 34.5429C68.957 34.5326 68.9564 34.5224 68.9563 34.5122ZM53.6902 32.5239C53.5798 29.0142 53.1837 25.6011 52.5204 22.3811C53.9232 22.9101 55.2518 23.5039 56.491 24.1612C60.9589 26.5308 63.7748 29.4443 64.636 32.5238L53.6902 32.5239ZM49.6505 32.5239H36.5188V19.3924C40.5801 19.5278 44.4838 20.0706 48.0589 20.9839C48.9722 24.5589 49.5151 28.4627 49.6505 32.5239ZM36.5188 15.3525V4.40661C39.5984 5.2679 42.5119 8.0837 44.8815 12.5517C45.5388 13.7909 46.1326 15.1195 46.6616 16.5225C43.4416 15.859 40.0286 15.4629 36.5188 15.3525ZM32.4809 4.40661V15.3525C28.9712 15.4629 25.5581 15.859 22.3381 16.5223C22.8671 15.1195 23.4609 13.7908 24.1182 12.5515C26.4879 8.0837 29.4013 5.2679 32.4809 4.40661ZM32.4809 19.3922V32.5238H19.3492C19.4846 28.4625 20.0276 24.5588 20.9408 20.9837C24.516 20.0706 28.4196 19.5276 32.4809 19.3922ZM15.3095 32.5239H4.36373C5.22502 29.4443 8.04082 26.5309 12.5087 24.1613C13.7479 23.5041 15.0765 22.9102 16.4793 22.3813C15.8161 25.6011 15.4199 29.0142 15.3095 32.5239ZM15.3095 36.5618C15.4199 40.0715 15.816 43.4846 16.4793 46.7046C15.0765 46.1757 13.7479 45.5818 12.5087 44.9246C8.04082 42.555 5.22489 39.6414 4.36373 36.5618H15.3095ZM19.3493 36.5618H32.481V49.6935C28.4198 49.5581 24.516 49.0151 20.941 48.1019C20.0276 44.5267 19.4846 40.6231 19.3493 36.5618ZM32.4809 53.7332V64.6791C29.4013 63.818 26.4878 61.002 24.1182 56.5342C23.4609 55.2949 22.8671 53.9663 22.3381 52.5634C25.5582 53.2267 28.9712 53.6228 32.4809 53.7332ZM36.5188 64.6791V53.7332C40.0285 53.6228 43.4416 53.2267 46.6616 52.5634C46.1326 53.9662 45.5388 55.2949 44.8815 56.5342C42.5119 61.0019 39.5986 63.8178 36.5188 64.6791ZM36.5188 49.6935V36.5618H49.6505C49.5151 40.6231 48.9722 44.5268 48.0589 48.1019C44.4838 49.0151 40.5802 49.5581 36.5188 49.6935ZM53.6902 36.5618H64.6361C63.775 39.6414 60.959 42.555 56.4912 44.9246C55.2519 45.5818 53.9233 46.1757 52.5205 46.7046C53.1837 43.4845 53.5799 40.0715 53.6902 36.5618ZM62.91 23.5412C61.5996 22.4848 60.087 21.4976 58.3831 20.5939C56.2432 19.459 53.8719 18.4953 51.3293 17.7134C50.5475 15.1707 49.5837 12.7995 48.4488 10.6595C47.5269 8.9213 46.5177 7.38338 45.437 6.05476C49.3561 7.5624 52.9511 9.88906 56.0094 12.9474C59.0733 16.0114 61.4027 19.6139 62.91 23.5412ZM12.9903 12.9475C16.0486 9.8892 19.6436 7.56253 23.5627 6.0549C22.4821 7.38352 21.4728 8.92144 20.5509 10.6596C19.416 12.7996 18.4523 15.1708 17.6704 17.7135C15.1278 18.4954 12.7565 19.4591 10.6166 20.5941C8.91274 21.4977 7.40026 22.4849 6.08968 23.5414C7.59718 19.6139 9.9264 16.0114 12.9903 12.9475ZM6.18794 45.6214C7.47604 46.6486 8.9546 47.6102 10.6168 48.4917C12.7566 49.6266 15.1279 50.5903 17.6705 51.3722C18.4524 53.9149 19.4161 56.2861 20.551 58.4261C21.4157 60.0564 22.3575 61.5093 23.3627 62.7799C19.5215 61.2706 15.9965 58.9728 12.9904 55.9667C9.99128 52.9677 7.69732 49.452 6.18794 45.6214ZM56.0096 55.9667C53.0035 58.9727 49.4785 61.2706 45.6373 62.7799C46.6424 61.5093 47.5843 60.0564 48.4489 58.4261C49.5839 56.2861 50.5476 53.9149 51.3295 51.3722C53.872 50.5903 56.2434 49.6266 58.3832 48.4917C60.0454 47.6102 61.5239 46.6486 62.812 45.6214C61.3024 49.452 59.0086 52.9677 56.0096 55.9667Z" fill="white"/>
</g>
<defs>
<clipPath id="clip0_12331_424">
<rect width="69" height="69" fill="white"/>
</clipPath>
</defs>
</svg>
