<svg width="79" height="79" viewBox="0 0 79 79" fill="none" xmlns="http://www.w3.org/2000/svg">
<path d="M47.679 17.2048C46.3088 17.2146 44.9485 17.2813 43.5117 17.6664C41.9461 18.0902 40.4607 18.7683 39.1149 19.6735C37.2238 18.5626 35.392 17.6491 33.6367 17.4343C31.4568 17.1653 29.4324 17.3109 27.0797 17.3603C24.29 17.4171 22.4706 18.8415 19.5179 19.9821C16.5678 21.1177 12.7684 22.2188 7.40625 22.2188H4.9375V45.9805L6.32741 46.6742L10.8773 48.9134L27.0797 66.9649L27.1562 67.0414C29.0078 68.8732 31.5062 69.3275 33.7133 69.2016C35.9228 69.0781 37.9965 68.4313 39.6531 67.429C43.2994 65.2294 53.2312 58.3243 53.2312 58.3243L53.4632 58.1687L53.6188 58.0157C54.7939 56.8479 55.3839 55.4235 55.7789 53.9274L65.2663 49.143L72.364 46.7532L74.0625 46.2101V22.2188H71.5938C67.4436 22.2497 63.3281 21.4629 59.4821 19.9031C56.5294 18.7502 54.7371 17.3405 51.9178 17.2813C50.4119 17.2517 49.0467 17.1949 47.679 17.2048ZM47.753 22.1423C48.864 22.1324 50.1477 22.1916 51.7672 22.2188C52.0264 22.2287 54.3989 23.2408 57.707 24.5345C60.5041 25.6331 64.3899 26.6082 69.125 26.9242V42.6625L63.4148 44.5931H63.2617L63.1062 44.6671L55.6259 48.4493C55.2288 47.3036 54.5983 46.2528 53.7743 45.3633L53.6188 45.1313L43.1266 32.2493L41.5836 30.3188L39.6531 31.8617L33.0195 37.2633C30.7927 38.8063 28.9881 38.3619 27.1562 37.4954C26.6255 37.2436 26.6551 37.1671 26.2305 36.8782L37.4954 27.5414L37.6484 27.3883C40.9936 24.0703 43.0501 22.9224 44.8226 22.4508C45.7114 22.2089 46.6446 22.1521 47.753 22.1423ZM30.5533 22.2188C31.3769 22.1854 32.202 22.211 33.022 22.2953C33.6688 22.3718 34.402 22.9224 35.0291 23.1446C34.7773 23.3766 34.5946 23.5099 34.3329 23.7618L34.1798 23.9173L20.6783 35.1007L18.5946 36.7992L20.4462 38.7273C20.4462 38.7273 22.2311 40.6579 24.9986 41.9688C27.766 43.2797 32.0394 44.0228 35.8759 41.3516L36.0314 41.1961L40.8134 37.2633L49.9181 48.4493L49.9947 48.6048L50.0712 48.6789C51.7006 50.2909 51.6635 52.8264 50.0712 54.4681C50.0514 54.4854 50.0909 54.5249 50.0712 54.5421C50.0514 54.5545 49.7256 54.747 49.6861 54.7767L46.4446 50.3773L42.4329 53.3102L45.5978 57.5515C44.3141 58.4205 43.7364 58.8748 42.3563 59.7907L39.0408 55.3148L35.0266 58.2477L38.1916 62.489C37.9101 62.6619 37.3324 63.0494 37.1102 63.1852C36.3301 63.6568 34.8242 64.1875 33.4837 64.2641C32.2221 64.3332 31.2568 64.0419 30.7853 63.6469L30.7088 63.5704L14.1978 45.2868L13.8892 44.8992L9.875 42.8946V26.9242C14.5903 26.6156 18.5057 25.68 21.293 24.611C24.5912 23.347 26.9464 22.3052 27.2328 22.2953L30.5533 22.2188Z" fill="white"/>
</svg>
