<svg width="69" height="69" viewBox="0 0 69 69" fill="none" xmlns="http://www.w3.org/2000/svg">
<path d="M65.1221 64.5854H3.87583C2.65715 64.5854 1.66797 65.5745 1.66797 66.7933C1.66797 68.0121 2.65715 69 3.87583 69H65.1232C66.3419 69 67.331 68.0132 67.331 66.7933C67.331 65.5734 66.342 64.5854 65.1221 64.5854Z" fill="white"/>
<path d="M3.87583 29.0119H65.1232C66.3419 29.0119 67.331 28.0229 67.331 26.8041C67.331 25.5852 66.3419 24.5962 65.122 24.5962H3.87583C2.65715 24.5962 1.66797 25.5852 1.66797 26.8041C1.66797 28.0229 2.65715 29.0119 3.87583 29.0119Z" fill="white"/>
<path d="M21.3056 22.5704C22.5242 22.5704 23.5134 21.5813 23.5134 20.3613V8.19761C23.5134 6.97879 22.5255 5.98975 21.3056 5.98975H8.97935C7.76066 5.98975 6.77148 6.97771 6.77148 8.19761V20.3624C6.77148 21.5812 7.76066 22.5702 8.97935 22.5702C10.1982 22.5702 11.1872 21.5823 11.1872 20.3624V10.4067H19.0977V20.3624C19.0977 21.5812 20.0857 22.5704 21.3056 22.5704Z" fill="white"/>
<path d="M8.97935 30.7163C7.76066 30.7163 6.77148 31.7043 6.77148 32.9242V55.6152C6.77148 60.544 10.9826 63.1227 15.1437 63.1227C19.3035 63.1227 23.5134 60.5441 23.5134 55.6152V32.9242C23.5134 31.7054 22.5242 30.7163 21.3056 30.7163C20.0867 30.7163 19.0977 31.7043 19.0977 32.9242V55.6152C19.0977 58.0563 16.6123 58.707 15.1437 58.707C13.6738 58.707 11.1872 58.0563 11.1872 55.6152V32.9242C11.1872 31.7055 10.198 30.7163 8.97935 30.7163Z" fill="white"/>
<path d="M8.91001 4.41573H21.3762C22.5961 4.41573 23.5841 3.42669 23.5841 2.20787C23.5841 0.98918 22.5961 0 21.3762 0H8.91001C7.69011 0 6.70215 0.98918 6.70215 2.20787C6.70215 3.42669 7.68998 4.41573 8.91001 4.41573Z" fill="white"/>
<path d="M40.6629 22.5704C41.8817 22.5704 42.8707 21.5813 42.872 20.3613V8.19761C42.872 6.97879 41.8829 5.98975 40.6629 5.98975H28.3377C27.1189 5.98975 26.1299 6.97771 26.1299 8.19761V20.3624C26.1299 21.5812 27.1189 22.5702 28.3377 22.5702C29.5564 22.5702 30.5456 21.5823 30.5456 20.3624V10.4067H38.455V20.3624C38.455 21.5812 39.4428 22.5704 40.6629 22.5704Z" fill="white"/>
<path d="M28.337 30.7163C27.1183 30.7163 26.1292 31.7043 26.1292 32.9242V55.6152C26.1292 60.544 30.3403 63.1227 34.5013 63.1227C38.6611 63.1227 42.8711 60.5441 42.8723 55.6152V32.9242C42.8723 31.7054 41.8833 30.7163 40.6632 30.7163C39.4432 30.7163 38.4554 31.7043 38.4554 32.9242V55.6152C38.4554 58.0563 35.97 58.707 34.5013 58.707C33.0314 58.707 30.5449 58.0563 30.5449 55.6152V32.9242C30.5449 31.7055 29.5558 30.7163 28.337 30.7163Z" fill="white"/>
<path d="M28.2666 4.41573H40.7328C41.9527 4.41573 42.9419 3.42669 42.9419 2.20787C42.9418 0.98918 41.9527 0 40.7327 0H28.2665C27.0476 0 26.0586 0.98918 26.0586 2.20787C26.0587 3.42669 27.0466 4.41573 28.2666 4.41573Z" fill="white"/>
<path d="M60.0194 22.5704C61.2393 22.5704 62.2285 21.5813 62.2285 20.3613V8.19761C62.2285 6.97879 61.2395 5.98975 60.0194 5.98975H47.6932C46.4733 5.98975 45.4854 6.97771 45.4854 8.19761V20.3624C45.4854 21.5812 46.4733 22.5702 47.6932 22.5702C48.9131 22.5702 49.9011 21.5823 49.9011 20.3624V10.4067H57.8105V20.3624C57.8105 21.5812 58.7995 22.5704 60.0194 22.5704Z" fill="white"/>
<path d="M47.6952 30.7163C46.4753 30.7163 45.4873 31.7043 45.4873 32.9242V55.6152C45.4873 60.544 49.6985 63.1227 53.8595 63.1227C58.0169 63.1227 62.2292 60.5441 62.2317 55.6152V32.9242C62.2317 31.7054 61.2426 30.7163 60.0226 30.7163C58.8026 30.7163 57.8135 31.7043 57.8135 32.9242V55.6152C57.8135 58.0563 55.3294 58.707 53.8607 58.707C52.3908 58.707 49.903 58.0563 49.903 55.6152V32.9242C49.903 31.7055 48.9151 30.7163 47.6952 30.7163Z" fill="white"/>
<path d="M47.6229 4.41573H60.0903C61.309 4.41573 62.2994 3.42669 62.2994 2.20787C62.2994 0.98918 61.3102 0 60.0903 0H47.6229C46.403 0 45.4138 0.98918 45.4138 2.20787C45.414 3.42669 46.403 4.41573 47.6229 4.41573Z" fill="white"/>
</svg>
