<svg width="41" height="41" viewBox="0 0 41 41" fill="none" xmlns="http://www.w3.org/2000/svg">
<g clip-path="url(#clip0_12382_903)">
<path d="M35.9795 16.7032C35.9795 28.3699 20.9795 38.3699 20.9795 38.3699C20.9795 38.3699 5.97949 28.3699 5.97949 16.7032C5.97949 12.725 7.55984 8.90969 10.3729 6.09665C13.1859 3.2836 17.0012 1.70325 20.9795 1.70325C24.9577 1.70325 28.773 3.2836 31.5861 6.09665C34.3991 8.90969 35.9795 12.725 35.9795 16.7032Z" stroke="white" stroke-width="2" stroke-linecap="round" stroke-linejoin="round"/>
<path d="M20.9795 21.7032C23.7409 21.7032 25.9795 19.4647 25.9795 16.7032C25.9795 13.9418 23.7409 11.7032 20.9795 11.7032C18.2181 11.7032 15.9795 13.9418 15.9795 16.7032C15.9795 19.4647 18.2181 21.7032 20.9795 21.7032Z" stroke="white" stroke-width="2" stroke-linecap="round" stroke-linejoin="round"/>
</g>
<defs>
<clipPath id="clip0_12382_903">
<rect width="40" height="40" fill="white" transform="translate(0.979492 0.0366211)"/>
</clipPath>
</defs>
</svg>
