<svg width="48" height="48" viewBox="0 0 48 48" fill="none" xmlns="http://www.w3.org/2000/svg">
<g id="parfume_e5nsdk4b4wla 1" clip-path="url(#clip0_12319_286)">
<g id="Group">
<path id="Vector" d="M40.7169 22.2905L30.8783 13.6309V9.28716C30.8783 8.76938 30.4585 8.34966 29.9408 8.34966H28.1571V0.9375C28.1571 0.419719 27.7374 0 27.2196 0H20.7806C20.2629 0 19.8431 0.419719 19.8431 0.9375V8.34966H18.0594C17.5417 8.34966 17.1219 8.76938 17.1219 9.28716V13.6309L7.28326 22.2905C6.95795 22.5768 6.87123 23.0487 7.07363 23.432L16.8176 41.8853L14.1378 46.5993C13.9728 46.8894 13.9746 47.2455 14.1425 47.5341C14.3104 47.8226 14.619 48.0001 14.9529 48.0001H33.0473C33.3811 48.0001 33.6897 47.8225 33.8576 47.5341C34.0255 47.2456 34.0273 46.8895 33.8623 46.5993L31.1825 41.8853L40.9265 23.4319C41.1289 23.0487 41.0422 22.5767 40.7169 22.2905ZM29.5484 40.9642H18.4518L9.45788 23.9317H38.5422L29.5484 40.9642ZM18.4133 14.9921H29.587L37.6134 22.0567H10.3869L18.4133 14.9921ZM21.7181 1.875H26.2821V4.17478H24.982C24.4643 4.17478 24.0445 4.5945 24.0445 5.11228C24.0445 5.63006 24.4643 6.04978 24.982 6.04978H26.2821V8.34966H21.7181V1.875ZM29.0033 10.2247V13.1171H18.9969V10.2247H29.0033ZM16.5642 46.125L18.4321 42.8392H29.5681L31.436 46.125H16.5642Z" fill="white"/>
<path id="Vector_2" d="M29.9411 26.9438H18.0598C17.542 26.9438 17.1223 27.3636 17.1223 27.8813V32.6354C17.1223 33.1532 17.542 33.5729 18.0598 33.5729H29.9411C30.4589 33.5729 30.8786 33.1532 30.8786 32.6354V27.8813C30.8786 27.3636 30.4589 26.9438 29.9411 26.9438ZM29.0036 31.698H18.9973V28.8189H29.0036V31.698Z" fill="white"/>
</g>
</g>
<defs>
<clipPath id="clip0_12319_286">
<rect width="48" height="48" fill="white"/>
</clipPath>
</defs>
</svg>
