<svg width="35" height="35" viewBox="0 0 35 35" fill="none" xmlns="http://www.w3.org/2000/svg">
<g clip-path="url(#clip0_12322_304)">
<path d="M33.9062 15.3104H26.6809C27.5384 14.6104 28.3806 13.7223 29.1594 12.5345C29.1791 12.5017 29.1987 12.4711 29.2162 12.4361C31.5044 8.01074 29.7784 1.10918 29.7041 0.818244C29.6056 0.433244 29.3037 0.137932 28.9209 0.0373066C28.5381 -0.0633184 28.1247 0.0548065 27.8491 0.341369C27.8316 0.358869 26.04 2.16793 20.0659 4.46043C17.9572 5.26762 16.4237 6.79887 15.7478 8.76981C15.6362 9.09356 15.5466 9.47199 15.4788 9.87887C14.8859 9.03449 14.0437 8.36293 12.985 7.95824C9.02125 6.44012 7.81812 5.24574 7.81812 5.24574C7.54687 4.94824 7.13781 4.82137 6.74625 4.92637C6.35688 5.02262 6.05281 5.32668 5.95437 5.71387C5.90187 5.91731 4.69438 10.7451 6.31312 13.8776C6.33063 13.9126 6.35031 13.9432 6.37 13.9761C6.71125 14.4967 7.07656 14.9232 7.45062 15.3104H1.09375C0.49 15.3104 0 15.8004 0 16.4042C0 23.1023 4.36406 29.1201 10.9375 31.6139V33.9042C10.9375 34.5079 11.4275 34.9979 12.0312 34.9979H22.9688C23.5725 34.9979 24.0625 34.5079 24.0625 33.9042V31.6139C30.6359 29.1201 35 23.1001 35 16.4042C35 15.8004 34.51 15.3104 33.9062 15.3104ZM17.8172 9.48074C18.2788 8.13324 19.3572 7.07449 20.8491 6.50356C24.4453 5.12543 26.6394 3.90262 27.9147 3.04949C28.2537 5.18012 28.5688 8.87043 27.2978 11.3861C25.1847 14.5711 22.6231 15.2842 20.7944 15.3104H20.5231C20.5012 15.3104 20.4816 15.3082 20.4619 15.3082C21.5469 14.2189 22.9075 12.5651 23.9619 10.3054C24.2178 9.75637 23.9816 9.10668 23.4325 8.85074C22.8878 8.59262 22.2337 8.83106 21.9778 9.37793C20.8753 11.7426 19.3638 13.3745 18.3881 14.2626C17.5678 12.5017 17.3425 10.8611 17.8172 9.48074ZM16.1241 14.5842C16.2225 14.8248 16.3122 15.0611 16.4303 15.3104H15.8681C15.9688 15.0611 16.0562 14.8182 16.1241 14.5842ZM7.77875 7.90137C8.70625 8.47012 10.1194 9.20074 12.2019 9.99918C13.1206 10.3514 13.7812 10.9967 14.0634 11.8148C14.3128 12.5454 14.2581 13.4007 13.9125 14.3282C13.1666 13.5823 12.3069 12.587 11.9634 11.6529C11.7578 11.0842 11.1344 10.7976 10.5612 11.0011C9.9925 11.2111 9.70375 11.8389 9.91156 12.4054C10.2987 13.4642 11.0731 14.4814 11.8103 15.2973C10.7253 15.1464 9.38875 14.5601 8.23156 12.8254C7.55125 11.4582 7.59062 9.42168 7.77875 7.90137ZM22.6253 29.8026C22.1791 29.9492 21.875 30.3692 21.875 30.8417V32.8104H13.125V30.8417C13.125 30.3692 12.8209 29.9514 12.3747 29.8026C6.65438 27.9148 2.695 23.0542 2.23344 17.4979H11.9569C12.1319 17.5111 12.3091 17.5264 12.4775 17.5264C12.5869 17.5264 12.6766 17.5045 12.7816 17.4979H32.7687C32.305 23.0542 28.3456 27.9148 22.6253 29.8026Z" fill="white"/>
</g>
<defs>
<clipPath id="clip0_12322_304">
<rect width="35" height="35" fill="white"/>
</clipPath>
</defs>
</svg>
