<svg width="40" height="40" viewBox="0 0 40 40" fill="none" xmlns="http://www.w3.org/2000/svg">
<g clip-path="url(#clip0_12319_277)">
<path d="M39.6567 8.63405C40.1144 8.17633 40.1144 7.43428 39.6567 6.97657L33.0268 0.346587C32.5694 -0.110893 31.8269 -0.11105 31.3693 0.346587L27.2256 4.49032C26.7611 4.0258 26.0024 4.04143 25.5611 4.49743C17.8294 12.362 9.15508 19.8938 0.475935 26.2788C-0.0931999 26.6989 -0.169147 27.5383 0.341699 28.0516L11.9442 39.654C12.4529 40.1627 13.2933 40.0944 13.717 39.5198C20.6117 30.1476 27.4821 22.466 35.5129 14.4352C35.9784 13.9696 35.9583 13.2231 35.5129 12.7777L39.6567 8.63405ZM12.6412 37.0359L2.95977 27.3548C3.58938 26.8846 4.21868 26.4088 4.84751 25.9274L14.0687 35.1486C13.5871 35.7774 13.1111 36.4066 12.6412 37.0359ZM15.516 33.281L6.71548 24.4804C13.5378 19.1299 20.2498 13.1665 26.4013 6.98095C27.188 7.76761 32.2323 12.8119 33.0223 13.6019C26.8178 19.7716 20.8524 26.4808 15.516 33.281ZM32.198 2.83284L33.8555 4.49032L33.0267 5.31909C32.569 5.77681 32.569 6.51886 33.0267 6.97657C33.4843 7.43428 34.2265 7.43436 34.6842 6.97657L35.513 6.14779L37.1705 7.80535L33.8555 11.1203L28.883 6.14779L32.198 2.83284Z" fill="white"/>
<path d="M18.109 16.9215C17.4449 17.5856 17.0791 18.4686 17.0791 19.4077C17.0791 20.3469 17.4449 21.2298 18.109 21.894C18.7944 22.5795 19.6948 22.9222 20.5952 22.9222C21.4956 22.9222 22.396 22.5795 23.0814 21.894C23.7456 21.2298 24.1113 20.3469 24.1113 19.4077C24.1113 18.4686 23.7455 17.5856 23.0814 16.9216C21.7107 15.5506 19.48 15.5505 18.109 16.9215ZM21.424 20.2364C21.2027 20.4578 20.9083 20.5797 20.5953 20.5797C20.2822 20.5797 19.9879 20.4578 19.7666 20.2364C19.5452 20.0151 19.4232 19.7207 19.4232 19.4077C19.4232 19.0947 19.5452 18.8003 19.7666 18.579C19.9951 18.3505 20.2952 18.2363 20.5953 18.2363C20.8954 18.2363 21.1956 18.3505 21.424 18.579C21.6454 18.8004 21.7674 19.0947 21.7674 19.4077C21.7673 19.7207 21.6454 20.0151 21.424 20.2364Z" fill="white"/>
</g>
<defs>
<clipPath id="clip0_12319_277">
<rect width="40" height="40" fill="white"/>
</clipPath>
</defs>
</svg>
