<svg width="643" height="687" viewBox="0 0 643 687" fill="none" xmlns="http://www.w3.org/2000/svg">
<path fill-rule="evenodd" clip-rule="evenodd" d="M253.201 17.3666C330.104 -3.91182 422.964 -11.7848 485.863 37.2983C547.109 85.0913 525.196 182.229 555.908 253.583C579.029 307.3 641.41 342.743 642.499 401.215C643.608 460.789 603.161 513.03 561.533 555.671C522.739 595.41 469.449 611.176 417.742 631.443C358.357 654.719 299.515 699.865 238.168 682.415C175.898 664.703 148.001 595.46 109.165 543.67C66.944 487.365 10.0661 437.617 2.16177 367.687C-6.39722 291.966 20.6972 215.671 65.0886 153.723C111.328 89.1966 176.686 38.5375 253.201 17.3666Z" fill="black"/>
</svg>
