<?xml version="1.0" encoding="UTF-8" standalone="no"?>
<svg
   width="15"
   height="15"
   viewBox="0 0 15 15"
   fill="none"
   version="1.1"
   id="svg4"
   sodipodi:docname="calendar.svg"
   inkscape:version="1.3.2 (091e20e, 2023-11-25, custom)"
   xmlns:inkscape="http://www.inkscape.org/namespaces/inkscape"
   xmlns:sodipodi="http://sodipodi.sourceforge.net/DTD/sodipodi-0.dtd"
   xmlns="http://www.w3.org/2000/svg"
   xmlns:svg="http://www.w3.org/2000/svg">
  <sodipodi:namedview
     id="namedview4"
     pagecolor="#ffffff"
     bordercolor="#cccccc"
     borderopacity="1"
     inkscape:showpageshadow="0"
     inkscape:pageopacity="1"
     inkscape:pagecheckerboard="0"
     inkscape:deskcolor="#d1d1d1"
     inkscape:zoom="78.733333"
     inkscape:cx="7.4936494"
     inkscape:cy="7.5"
     inkscape:window-width="3440"
     inkscape:window-height="1377"
     inkscape:window-x="-8"
     inkscape:window-y="-8"
     inkscape:window-maximized="1"
     inkscape:current-layer="svg4" />
  <path
     style="color:#000000;fill:#6f6f6f;stroke-linecap:round;stroke-linejoin:round;-inkscape-stroke:none"
     d="M 3.125,1 C 1.8942082,1 0.875,2.0192082 0.875,3.25 V 12 c 0,1.2308 1.0192468,2.25 2.25,2.25 h 8.75 c 1.230762,0 2.25,-1.019238 2.25,-2.25 V 3.25 C 14.125,2.0192468 13.1058,1 11.875,1 Z m 0,2 h 8.75 c 0.149998,0 0.25,0.1000345 0.25,0.25 V 12 c 0,0.150037 -0.09996,0.25 -0.25,0.25 H 3.125 C 2.9750345,12.25 2.875,12.149998 2.875,12 V 3.25 C 2.875,3.1000732 2.9750732,3 3.125,3 Z"
     id="path1" />
  <path
     style="color:#000000;fill:#6f6f6f;stroke-linecap:round;stroke-linejoin:round;-inkscape-stroke:none"
     d="m 10,-0.25 a 1,1 0 0 0 -1,1 v 2.5 a 1,1 0 0 0 1,1 1,1 0 0 0 1,-1 v -2.5 a 1,1 0 0 0 -1,-1 z"
     id="path2" />
  <path
     style="color:#000000;fill:#6f6f6f;stroke-linecap:round;stroke-linejoin:round;-inkscape-stroke:none"
     d="m 5,-0.25 a 1,1 0 0 0 -1,1 v 2.5 a 1,1 0 0 0 1,1 1,1 0 0 0 1,-1 v -2.5 a 1,1 0 0 0 -1,-1 z"
     id="path3" />
  <path
     style="color:#000000;fill:#6f6f6f;stroke-linecap:round;stroke-linejoin:round;-inkscape-stroke:none"
     d="m 1.875,4.75 a 1,1 0 0 0 -1,1 1,1 0 0 0 1,1 h 11.25 a 1,1 0 0 0 1,-1 1,1 0 0 0 -1,-1 z"
     id="path4" />
  <defs
     id="defs4">
    <clipPath
       clipPathUnits="userSpaceOnUse"
       id="clipPath5">
      <g
         id="g6">
        <rect
           width="15"
           height="15"
           fill="#ffffff"
           id="rect5"
           x="0"
           y="0" />
      </g>
    </clipPath>
    <clipPath
       clipPathUnits="userSpaceOnUse"
       id="clipPath6">
      <g
         id="g7">
        <rect
           width="15"
           height="15"
           fill="#ffffff"
           id="rect6"
           x="0"
           y="0" />
      </g>
    </clipPath>
    <clipPath
       clipPathUnits="userSpaceOnUse"
       id="clipPath7">
      <g
         id="g8">
        <rect
           width="15"
           height="15"
           fill="#ffffff"
           id="rect7"
           x="0"
           y="0" />
      </g>
    </clipPath>
    <clipPath
       clipPathUnits="userSpaceOnUse"
       id="clipPath8">
      <g
         id="g9">
        <rect
           width="15"
           height="15"
           fill="#ffffff"
           id="rect8"
           x="0"
           y="0" />
      </g>
    </clipPath>
  </defs>
</svg>
