<svg width="25" height="25" viewBox="0 0 25 25" fill="none" xmlns="http://www.w3.org/2000/svg">
<path fill-rule="evenodd" clip-rule="evenodd" d="M22.9163 12.5002C22.9163 18.2533 18.2528 22.9168 12.4997 22.9168C6.74655 22.9168 2.08301 18.2533 2.08301 12.5002C2.08301 6.74704 6.74655 2.0835 12.4997 2.0835C18.2528 2.0835 22.9163 6.74704 22.9163 12.5002ZM16.6976 9.34391C16.8439 9.4904 16.9261 9.68896 16.9261 9.896C16.9261 10.103 16.8439 10.3016 16.6976 10.4481L11.4893 15.6564C11.3428 15.8027 11.1442 15.8849 10.9372 15.8849C10.7301 15.8849 10.5316 15.8027 10.3851 15.6564L8.30176 13.5731C8.225 13.5016 8.16344 13.4153 8.12074 13.3195C8.07804 13.2236 8.05508 13.1202 8.05323 13.0153C8.05137 12.9104 8.07067 12.8062 8.10996 12.7089C8.14926 12.6116 8.20774 12.5233 8.28193 12.4491C8.35611 12.3749 8.44448 12.3164 8.54176 12.2771C8.63904 12.2378 8.74324 12.2185 8.84813 12.2204C8.95303 12.2222 9.05649 12.2452 9.15232 12.2879C9.24815 12.3306 9.3344 12.3922 9.40592 12.4689L10.9372 14.0002L13.2653 11.672L15.5934 9.34391C15.7399 9.19761 15.9385 9.11543 16.1455 9.11543C16.3525 9.11543 16.5511 9.19761 16.6976 9.34391Z" fill="#4599F7"/>
</svg>
