<svg width="26" height="22" viewBox="0 0 26 22" fill="none" xmlns="http://www.w3.org/2000/svg">
<path fill-rule="evenodd" clip-rule="evenodd" d="M2.5 3.35618V2.33337H22.5V3.35618L15.7105 8.96438C14.9439 9.59761 14.5 10.54 14.5 11.5343V15.2847C14.5 15.9777 14.1412 16.6214 13.5517 16.9858L10.5 18.8725V11.5343C10.5 10.54 10.0561 9.59761 9.28949 8.96438L2.5 3.35618ZM16.5 11.5343C16.5 11.1366 16.6776 10.7597 16.9842 10.5064L24.5 4.29823V1.66671C24.5 0.930328 23.903 0.333374 23.1667 0.333374H1.83333C1.09695 0.333374 0.5 0.930328 0.5 1.66671V4.29823L8.0158 10.5064C8.32244 10.7597 8.5 11.1366 8.5 11.5343V20.6665C8.5 21.4497 9.35965 21.9289 10.0259 21.517L14.6034 18.6869C15.7824 17.9581 16.5 16.6708 16.5 15.2847V11.5343ZM22.8332 21.6667L22.8333 18.6666L25.8334 18.6666L25.8333 16.6666L22.8334 16.6666L22.8334 13.6668L20.8334 13.6667L20.8334 16.6667L17.8333 16.6668L17.8334 18.6668L20.8333 18.6667L20.8332 21.6667L22.8332 21.6667Z" fill="#6F6F6F"/>
<path d="M2.5 2.33337V3.35618L9.28949 8.96438C10.0561 9.59761 10.5 10.54 10.5 11.5343V18.8725L13.5517 16.9858C14.1412 16.6214 14.5 15.9777 14.5 15.2847V11.5343C14.5 10.54 14.9439 9.59761 15.7105 8.96438L22.5 3.35618V2.33337H2.5Z" fill="#6F6F6F"/>
</svg>
