<svg width="15" height="15" viewBox="0 0 15 15" fill="none" xmlns="http://www.w3.org/2000/svg">
<g id="information-variant-circle-outline">
<path id="Vector" d="M7.6875 4.55625C7.8125 4.44375 7.9625 4.375 8.125 4.375C8.29375 4.375 8.4375 4.44375 8.56875 4.55625C8.6875 4.6875 8.75 4.8375 8.75 5C8.75 5.16875 8.6875 5.3125 8.56875 5.44375C8.4375 5.5625 8.29375 5.625 8.125 5.625C7.9625 5.625 7.8125 5.5625 7.6875 5.44375C7.56875 5.3125 7.5 5.16875 7.5 5C7.5 4.8375 7.56875 4.6875 7.6875 4.55625ZM6.125 7.48125C6.125 7.48125 7.48125 6.40625 7.975 6.3625C8.4375 6.325 8.34375 6.85625 8.3 7.13125L8.29375 7.16875C8.20625 7.5 8.1 7.9 7.99375 8.28125C7.75625 9.15 7.525 10 7.58125 10.1562C7.64375 10.3687 8.03125 10.1 8.3125 9.9125C8.35 9.8875 8.38125 9.8625 8.4125 9.84375C8.4125 9.84375 8.4625 9.79375 8.5125 9.8625C8.525 9.88125 8.5375 9.9 8.55 9.9125C8.60625 10 8.6375 10.0312 8.5625 10.0812L8.5375 10.0938C8.4 10.1875 7.8125 10.6 7.575 10.75C7.31875 10.9188 6.3375 11.4813 6.4875 10.3875C6.61875 9.61875 6.79375 8.95625 6.93125 8.4375C7.1875 7.5 7.3 7.075 6.725 7.44375C6.49375 7.58125 6.35625 7.66875 6.275 7.725C6.20625 7.775 6.2 7.775 6.15625 7.69375L6.1375 7.65625L6.10625 7.60625C6.0625 7.54375 6.0625 7.5375 6.125 7.48125ZM13.75 7.5C13.75 10.9375 10.9375 13.75 7.5 13.75C4.0625 13.75 1.25 10.9375 1.25 7.5C1.25 4.0625 4.0625 1.25 7.5 1.25C10.9375 1.25 13.75 4.0625 13.75 7.5ZM12.5 7.5C12.5 4.7375 10.2625 2.5 7.5 2.5C4.7375 2.5 2.5 4.7375 2.5 7.5C2.5 10.2625 4.7375 12.5 7.5 12.5C10.2625 12.5 12.5 10.2625 12.5 7.5Z" fill="white"/>
</g>
</svg>
