<svg width="17" height="17" viewBox="0 0 17 17" fill="none" xmlns="http://www.w3.org/2000/svg">
<path d="M11.9342 0.868652H5.06578C3.95257 0.868652 2.88495 1.31087 2.09779 2.09803C1.31063 2.88519 0.868408 3.95281 0.868408 5.06602V11.9344C0.868408 13.0477 1.31063 14.1153 2.09779 14.9024C2.88495 15.6896 3.95257 16.1318 5.06578 16.1318H11.9342C13.0474 16.1318 14.115 15.6896 14.9022 14.9024C15.6893 14.1153 16.1316 13.0477 16.1316 11.9344V5.06602C16.1316 3.95281 15.6893 2.88519 14.9022 2.09803C14.115 1.31087 13.0474 0.868652 11.9342 0.868652ZM14.796 11.3315C14.796 12.2505 14.431 13.1317 13.7812 13.7815C13.1315 14.4313 12.2502 14.7963 11.3313 14.7963H5.66867C4.74977 14.7963 3.8685 14.4313 3.21873 13.7815C2.56897 13.1317 2.20393 12.2505 2.20393 11.3315V5.66892C2.20393 4.75001 2.56897 3.86874 3.21873 3.21898C3.8685 2.56921 4.74977 2.20418 5.66867 2.20418H11.3313C12.2502 2.20418 13.1315 2.56921 13.7812 3.21898C14.431 3.86874 14.796 4.75001 14.796 5.66892V11.3315Z" fill="white"/>
<path d="M11.2836 5.74526L11.2473 5.70901L11.2168 5.67848C10.4954 4.9596 9.51839 4.55616 8.49997 4.55664C7.98568 4.56014 7.47711 4.66493 7.00334 4.86503C6.52956 5.06513 6.09985 5.35663 5.73876 5.72285C5.37767 6.08908 5.09228 6.52286 4.89889 6.99942C4.7055 7.47598 4.60791 7.98597 4.61168 8.50026C4.6109 9.54398 5.02232 10.5458 5.75641 11.2877C6.11599 11.6516 6.54447 11.9403 7.01683 12.1369C7.48919 12.3334 7.99598 12.4339 8.5076 12.4324C9.27503 12.4163 10.0212 12.1773 10.6551 11.7444C11.289 11.3115 11.7832 10.7035 12.0775 9.9946C12.3718 9.28566 12.4534 8.50641 12.3125 7.75187C12.1715 6.99733 11.814 6.30011 11.2836 5.74526ZM8.49997 11.0874C7.9868 11.0946 7.4831 10.949 7.05291 10.6691C6.62272 10.3892 6.28549 9.98773 6.0841 9.51568C5.88272 9.04362 5.82629 8.52234 5.92198 8.01813C6.01767 7.51391 6.26117 7.04955 6.6215 6.68411C6.98182 6.31866 7.4427 6.06863 7.94552 5.96584C8.44833 5.86304 8.97036 5.91211 9.4452 6.10681C9.92005 6.30151 10.3263 6.63305 10.6122 7.05924C10.8981 7.48544 11.0508 7.98704 11.0508 8.50026C11.0533 8.83766 10.9893 9.17225 10.8625 9.4849C10.7356 9.79755 10.5484 10.0821 10.3115 10.3224C10.0746 10.5627 9.79269 10.7539 9.48185 10.8851C9.17102 11.0164 8.83737 11.0851 8.49997 11.0874Z" fill="white"/>
<path d="M13.5421 4.3753C13.5431 4.49773 13.52 4.61915 13.474 4.73262C13.428 4.84609 13.3601 4.94938 13.2742 5.03657C13.1882 5.12376 13.0859 5.19314 12.9731 5.24074C12.8603 5.28835 12.7392 5.31323 12.6168 5.31398C12.4954 5.31393 12.3752 5.28978 12.2632 5.24295C12.1512 5.19612 12.0496 5.12753 11.9643 5.04115C11.835 4.91001 11.7471 4.74382 11.7114 4.56318C11.6758 4.38254 11.6939 4.1954 11.7636 4.02496C11.8332 3.85452 11.9514 3.70828 12.1034 3.60437C12.2554 3.50047 12.4346 3.44346 12.6187 3.44043C12.8342 3.44039 13.0428 3.51602 13.2082 3.65411L13.2273 3.67319C13.2581 3.69824 13.2862 3.72637 13.3113 3.75714L13.3323 3.78003C13.4688 3.94828 13.543 4.1586 13.5421 4.3753Z" fill="white"/>
</svg>
