<svg width="15" height="15" viewBox="0 0 15 15" fill="none" xmlns="http://www.w3.org/2000/svg">
<path d="M4.25669 2.22849C4.25707 2.62033 4.14119 3.00349 3.92373 3.32945C3.70626 3.65542 3.39699 3.90955 3.03504 4.05968C2.67309 4.2098 2.27474 4.24918 1.89041 4.17283C1.50607 4.09648 1.15302 3.90782 0.875944 3.63075C0.598866 3.35367 0.410212 3.00062 0.333859 2.61628C0.257506 2.23195 0.296885 1.8336 0.447013 1.47165C0.597141 1.1097 0.851269 0.800426 1.17724 0.582963C1.5032 0.365499 1.88635 0.249624 2.2782 0.250001C2.80277 0.250506 3.30572 0.459115 3.67665 0.830044C4.04757 1.20097 4.25618 1.70392 4.25669 2.22849Z" fill="white"/>
<path d="M3.31984 5.0332H1.23642C0.965621 5.0332 0.746094 5.25273 0.746094 5.52353V14.2598C0.746094 14.5306 0.965621 14.7501 1.23642 14.7501H3.31984C3.59065 14.7501 3.81017 14.5306 3.81017 14.2598V5.52353C3.81017 5.25273 3.59065 5.0332 3.31984 5.0332Z" fill="white"/>
<path d="M14.7025 10.0701V14.2999C14.7025 14.4193 14.655 14.5338 14.5706 14.6183C14.4861 14.7027 14.3716 14.7501 14.2522 14.7501H12.0161C11.8967 14.7501 11.7822 14.7027 11.6978 14.6183C11.6133 14.5338 11.5659 14.4193 11.5659 14.2999V10.2017C11.5659 9.58928 11.7433 7.53066 9.96707 7.53066C8.58957 7.53066 8.30911 8.94632 8.24996 9.58165V14.3094C8.24749 14.4265 8.19948 14.538 8.11613 14.6203C8.03277 14.7026 7.92064 14.7492 7.80352 14.7501H5.63996C5.58076 14.7504 5.5221 14.7389 5.46736 14.7164C5.41262 14.6938 5.36288 14.6607 5.32102 14.6188C5.27916 14.577 5.246 14.5272 5.22346 14.4725C5.20092 14.4177 5.18945 14.3591 5.1897 14.2999V5.4854C5.18945 5.42611 5.20091 5.36736 5.22343 5.31251C5.24594 5.25766 5.27907 5.2078 5.3209 5.16578C5.36274 5.12377 5.41246 5.09043 5.46721 5.06769C5.52197 5.04494 5.58067 5.03323 5.63996 5.03323H7.80352C7.86354 5.03222 7.92316 5.04316 7.9789 5.06543C8.03464 5.0877 8.0854 5.12085 8.1282 5.16294C8.171 5.20503 8.20499 5.25522 8.22819 5.31058C8.25139 5.36594 8.26333 5.42537 8.26332 5.4854V6.24856C8.77464 5.4854 9.53398 4.89014 11.15 4.89014C14.7235 4.88823 14.7025 8.23277 14.7025 10.0701Z" fill="white"/>
</svg>
