<?xml version="1.0" encoding="UTF-8" standalone="no"?>
<svg
   width="24"
   height="24"
   viewBox="0 0 24 24"
   fill="none"
   version="1.1"
   id="svg3"
   sodipodi:docname="shopping-bag.svg"
   inkscape:version="1.3.2 (091e20e, 2023-11-25, custom)"
   xmlns:inkscape="http://www.inkscape.org/namespaces/inkscape"
   xmlns:sodipodi="http://sodipodi.sourceforge.net/DTD/sodipodi-0.dtd"
   xmlns="http://www.w3.org/2000/svg"
   xmlns:svg="http://www.w3.org/2000/svg">
  <defs
     id="defs3" />
  <sodipodi:namedview
     id="namedview3"
     pagecolor="#ffffff"
     bordercolor="#cccccc"
     borderopacity="1"
     inkscape:showpageshadow="0"
     inkscape:pageopacity="1"
     inkscape:pagecheckerboard="0"
     inkscape:deskcolor="#d1d1d1"
     inkscape:zoom="49.208333"
     inkscape:cx="11.989839"
     inkscape:cy="12"
     inkscape:window-width="3440"
     inkscape:window-height="1377"
     inkscape:window-x="-8"
     inkscape:window-y="-8"
     inkscape:window-maximized="1"
     inkscape:current-layer="svg3" />
  <path
     style="color:#000000;fill:#000000;stroke-linecap:round;stroke-linejoin:round;-inkscape-stroke:none"
     d="M 6,1 A 1.0001,1.0001 0 0 0 5.1992187,1.4003906 l -2.9999999,4 A 1.0001,1.0001 0 0 0 2,6 v 14 c 0,0.795243 0.3165904,1.558748 0.8789063,2.121094 C 3.4412548,22.683487 4.2047542,23 5,23 h 14 c 0.795231,0 1.55874,-0.316552 2.121094,-0.878906 C 21.683448,21.55874 22,20.795231 22,20 V 6 A 1.0001,1.0001 0 0 0 21.800781,5.4003906 l -3,-4 A 1.0001,1.0001 0 0 0 18,1 Z m 0.5,2 h 11 L 20,6.3339844 V 20 c 0,0.265568 -0.105124,0.519186 -0.292969,0.707031 C 19.519186,20.894876 19.265568,21 19,21 H 5 C 4.7343869,21 4.4807594,20.894837 4.2929687,20.707031 4.1051254,20.519178 4,20.265556 4,20 V 6.3339844 Z"
     id="path1" />
  <path
     style="color:#000000;fill:#000000;stroke-linecap:round;stroke-linejoin:round;-inkscape-stroke:none"
     d="M 3,5 A 1,1 0 0 0 2,6 1,1 0 0 0 3,7 H 21 A 1,1 0 0 0 22,6 1,1 0 0 0 21,5 Z"
     id="path2" />
  <path
     style="color:#000000;fill:#000000;stroke-linecap:round;stroke-linejoin:round;-inkscape-stroke:none"
     d="m 8,9 a 1,1 0 0 0 -1,1 c 0,1.325724 0.5274223,2.597785 1.4648438,3.535156 C 9.4022564,14.472631 10.674295,15 12,15 13.325705,15 14.597772,14.472665 15.535156,13.535156 16.472665,12.597772 17,11.325705 17,10 a 1,1 0 0 0 -1,-1 1,1 0 0 0 -1,1 c 0,0.796093 -0.316017,1.558279 -0.878906,2.121094 C 13.558279,12.683983 12.796093,13 12,13 11.203907,13 10.441792,12.684017 9.8789063,12.121094 9.3160492,11.558267 9,10.796074 9,10 A 1,1 0 0 0 8,9 Z"
     id="path3" />
</svg>
