<svg width="40" height="40" viewBox="0 0 40 40" fill="none" xmlns="http://www.w3.org/2000/svg">
<path d="M34 6H30C30 4.89531 29.1047 4 28 4H26V2C26 0.895312 25.1047 0 24 0H16C14.8953 0 14 0.895312 14 2V4H12C10.8953 4 10 4.89531 10 6H6C4.89531 6 4 6.89531 4 8V38C4 39.1047 4.89531 40 6 40H34C35.1047 40 36 39.1047 36 38V8C36 6.89531 35.1047 6 34 6ZM12 6H16V2H24V6H28V8H12V6ZM34 38H6V8H10C10 9.10469 10.8953 10 12 10H28C29.1047 10 30 9.10469 30 8H34V38Z" fill="white"/>
<path d="M30 14H10V16H30V14Z" fill="white"/>
<path d="M30 20H10V22H30V20Z" fill="white"/>
</svg>
