<svg width="25" height="25" viewBox="0 0 25 25" fill="none" xmlns="http://www.w3.org/2000/svg">
<g id="brain">
<path id="Vector" d="M22.2184 13.4479C22.3122 15.0625 21.5726 16.6146 20.2497 17.5625L21.0518 19.1146C21.2914 19.5833 21.3226 20.1354 21.1143 20.625C20.9164 21.1146 20.5101 21.5 20.0101 21.6667L19.1872 21.9271C19.0101 21.9896 18.8122 22.0208 18.6247 22.0208C18.0934 22.0208 17.5934 21.7813 17.2497 21.3542L15.0414 18.75C14.1143 18.5938 13.2393 18.1979 12.4997 17.6042C11.9789 17.7604 11.458 17.8438 10.9372 17.8438C10.0205 17.8438 9.10386 17.5625 8.33303 17.0208C7.78094 17.1875 7.21844 17.2604 6.64553 17.25C5.82261 17.2604 5.01011 17.0938 4.24969 16.7813C2.76011 16.1146 1.77053 14.6563 1.71844 13.0208C1.63511 12.2708 1.76011 11.5104 2.08303 10.8229C1.78094 10.0417 1.74969 9.18751 2.01011 8.39585C2.39553 7.40626 3.12469 6.58335 4.03094 6.06251C4.63511 4.3021 6.33303 3.12501 8.19761 3.25001C9.86428 1.68751 12.4164 1.52085 14.2705 2.8646C14.708 2.75001 15.1664 2.68751 15.6247 2.68751C17.0414 2.65626 18.3851 3.28126 19.2705 4.39585C21.3955 4.94793 22.9164 6.84376 22.9997 9.0521C23.0518 10.2083 22.7393 11.3438 22.1039 12.3125C22.1768 12.6875 22.2184 13.0625 22.2184 13.4479ZM17.0101 11.9792C17.6039 12.0521 18.0726 12.5 18.0726 13.0938C18.0726 13.37 17.9629 13.635 17.7675 13.8303C17.5722 14.0257 17.3072 14.1354 17.0309 14.1354H16.3747C16.0414 15.0729 15.458 15.8958 14.6872 16.5208C14.9476 16.6146 15.2184 16.6667 15.4893 16.7396C20.833 16.6667 20.208 13.4063 20.208 13.3542C20.1455 11.8646 18.8955 10.6979 17.4059 10.7604C17.1297 10.7604 16.8647 10.6507 16.6694 10.4553C16.474 10.26 16.3643 9.99503 16.3643 9.71876C16.3643 9.4425 16.474 9.17754 16.6694 8.98219C16.8647 8.78684 17.1297 8.6771 17.4059 8.6771C18.6872 8.70835 19.9164 9.18751 20.8747 10.0313C20.9268 9.72918 20.958 9.41668 20.958 9.10418C20.8955 7.81251 20.3122 6.68751 17.9684 6.46876C16.6664 3.38543 13.3851 5.09376 13.3851 6.0521C13.3539 6.29168 13.6039 6.8021 13.6455 6.83335C13.9218 6.83335 14.1867 6.94309 14.3821 7.13844C14.5774 7.33379 14.6872 7.59875 14.6872 7.87501C14.6872 8.44793 14.2184 8.91668 13.6455 8.91668C13.0934 8.89585 12.5726 8.68751 12.1559 8.33335C11.6559 8.65626 11.083 8.85418 10.4893 8.91668C9.89553 8.96876 9.40594 8.5521 9.37469 7.97918C9.29136 7.39585 9.71844 6.88543 10.2914 6.83335C10.458 6.81251 11.2705 6.68751 11.2705 6.03126C11.2705 5.34376 11.5309 4.68751 11.9789 4.16668C11.0205 3.90626 9.98928 4.25001 8.94761 5.51043C7.03094 5.20835 6.24969 5.46876 5.67678 7.50001C4.68719 7.9896 4.16636 8.33335 3.93719 9.37501C5.06219 9.14585 6.21844 9.2396 7.29136 9.63543C7.81219 9.83335 8.10386 10.4167 7.90594 10.9792C7.70803 11.5208 7.10386 11.7917 6.56219 11.5938C5.80178 11.2604 4.94761 11.2396 4.16636 11.5313C3.83303 11.8125 3.83303 12.3958 3.83303 12.8542C3.83303 13.625 4.21844 14.3438 4.87469 14.7604C5.42678 15.0417 6.04136 15.1875 6.65594 15.1771C6.49969 14.9063 6.36428 14.625 6.24969 14.3333C6.05178 13.7708 6.35386 13.1563 6.91636 12.9583C7.47886 12.7604 8.09344 13.0625 8.29136 13.625C8.70803 14.8125 9.77053 15.625 11.0205 15.7604C12.4476 15.6875 13.7184 14.8438 14.3434 13.5417C14.583 12.1042 15.7393 11.9792 17.0101 11.9792ZM19.0934 19.7604L18.4476 18.4063L17.708 18.5729L18.7497 19.875L19.0934 19.7604ZM14.2497 10.7917C14.2705 10.2396 13.8539 9.77085 13.3018 9.71876C12.5622 9.6771 11.8434 9.9271 11.2914 10.4167C10.6976 11.0208 10.3851 11.8542 10.4164 12.6979C10.4164 12.9742 10.5261 13.2391 10.7215 13.4345C10.9168 13.6299 11.1818 13.7396 11.458 13.7396C12.0518 13.7396 12.4997 13.2708 12.4997 12.6979C12.4997 12.4167 12.5726 12.1354 12.7393 11.9063C12.8643 11.8021 13.0205 11.75 13.1872 11.75C13.7601 11.7813 14.2497 11.3542 14.2497 10.7917Z" fill="white"/>
</g>
</svg>
