<svg width="40" height="40" viewBox="0 0 40 40" fill="none" xmlns="http://www.w3.org/2000/svg">
<path fill-rule="evenodd" clip-rule="evenodd" d="M17.6347 2.08326H17.6013C17.4113 2.08326 17.2647 2.08326 17.1247 2.0916C16.2587 2.14424 15.4255 2.44157 14.7218 2.94902C14.0182 3.45648 13.473 4.15322 13.1497 4.95826C13.098 5.0866 13.0513 5.22493 12.9913 5.4066L12.9813 5.43826L12.938 5.5666L12.8897 5.70826C12.623 6.44493 11.738 7.05993 10.8013 7.08326L7.76801 7.23326C6.45801 7.3866 5.33634 7.71326 4.38801 8.48493C4.05867 8.75643 3.75617 9.05893 3.48467 9.38826C2.71301 10.3383 2.38467 11.4583 2.23134 12.7699C2.08301 14.0366 2.08301 15.6283 2.08301 17.6033V17.7333C2.08301 18.2066 2.08301 18.6499 2.12134 19.0233C2.16301 19.4366 2.25967 19.8766 2.52134 20.2999C2.60801 20.4377 2.70523 20.5677 2.81301 20.6899C3.09467 21.0083 3.42134 21.2149 3.74967 21.3666C3.75467 24.0599 3.78967 26.7799 4.03134 29.1099C4.17301 30.4766 4.38967 31.7583 4.73467 32.8516C5.07301 33.9266 5.57301 34.9449 6.36634 35.6483C7.73801 36.8683 9.46634 37.4066 11.6213 37.6649C13.738 37.9166 16.4513 37.9166 19.9147 37.9166H20.0847C23.548 37.9166 26.2613 37.9166 28.378 37.6633C30.533 37.4066 32.2613 36.8683 33.633 35.6483C34.4263 34.9449 34.9263 33.9266 35.2663 32.8516C35.6097 31.7583 35.8263 30.4766 35.968 29.1099C36.2097 26.7799 36.2447 24.0599 36.2497 21.3666C36.7561 21.1419 37.1835 20.7703 37.4763 20.2999C37.7397 19.8766 37.8363 19.4366 37.878 19.0233C37.9163 18.6499 37.9163 18.2066 37.9163 17.7333V17.6033C37.9163 15.6283 37.9163 14.0366 37.7663 12.7699C37.613 11.4583 37.2863 10.3366 36.5147 9.38826C36.2432 9.05893 35.9407 8.75643 35.6113 8.48493C34.6613 7.71326 33.5413 7.38493 32.2297 7.2316L29.1997 7.08326C28.263 7.05993 27.378 6.44493 27.1113 5.70826L27.063 5.5666L27.0097 5.40493C26.9497 5.2266 26.9047 5.0866 26.8513 4.9566C26.5278 4.15187 25.9825 3.45547 25.2788 2.94833C24.5752 2.44118 23.7421 2.1441 22.8763 2.0916C22.7181 2.08431 22.5597 2.08153 22.4013 2.08326H17.6347ZM12.618 9.58326H27.383C29.4197 9.58326 30.8463 9.5866 31.938 9.71493C33.0147 9.8416 33.603 10.0749 34.033 10.4249C34.233 10.5872 34.4136 10.7677 34.5747 10.9666C34.9247 11.3966 35.158 11.9849 35.2847 13.0616C35.4147 14.1649 35.4163 15.6099 35.4163 17.6816C35.4163 18.2249 35.4163 18.5399 35.3913 18.7716C35.3875 18.8424 35.3746 18.9124 35.353 18.9799L35.313 19.0349C35.2541 19.0752 35.1902 19.1076 35.123 19.1316C34.908 19.2216 34.6063 19.3133 34.0863 19.4683L25.4163 22.0699V21.6666C25.4163 20.5166 24.483 19.5833 23.333 19.5833H16.6663C15.5163 19.5833 14.583 20.5166 14.583 21.6666V22.0699L5.91301 19.4699C5.56237 19.3734 5.21643 19.2605 4.87634 19.1316C4.80913 19.1076 4.74527 19.0752 4.68634 19.0349L14.583 22.0699L4.64634 18.9799C4.62475 18.9124 4.61187 18.8424 4.60801 18.7716C4.58269 18.4089 4.57435 18.0451 4.58301 17.6816C4.58301 15.6099 4.58467 14.1649 4.71467 13.0616C4.84134 11.9849 5.07467 11.3966 5.42467 10.9666C5.58669 10.7684 5.76815 10.5869 5.96634 10.4249C6.39634 10.0749 6.98467 9.8416 8.06134 9.71493C9.15301 9.5866 10.5797 9.58326 12.618 9.58326ZM17.633 4.58326C17.3947 4.58326 17.328 4.58326 17.2747 4.5866C16.8811 4.61058 16.5023 4.74579 16.1825 4.9765C15.8627 5.20722 15.6149 5.52397 15.468 5.88993C15.4261 6.00164 15.3872 6.11446 15.3513 6.22826L15.303 6.36993L15.2397 6.55826C15.173 6.74049 15.0952 6.91549 15.0063 7.08326H24.9897C24.8689 6.85519 24.7696 6.61638 24.693 6.36993L24.6463 6.22826C24.6105 6.11446 24.5716 6.00164 24.5297 5.88993C24.3826 5.52372 24.1346 5.20681 23.8145 4.97607C23.4943 4.74534 23.1153 4.61027 22.7213 4.5866C22.6019 4.58228 22.4825 4.58116 22.363 4.58326H17.633ZM6.25301 22.1816C6.26467 24.5766 6.31301 26.8766 6.51801 28.8533C6.65134 30.1366 6.84467 31.2316 7.11801 32.0999C7.39801 32.9833 7.72134 33.5083 8.02634 33.7799C8.85134 34.5133 9.98967 34.9516 11.918 35.1799C13.868 35.4133 16.433 35.4166 19.9997 35.4166C23.5663 35.4166 26.1297 35.4149 28.0813 35.1816C30.0097 34.9516 31.148 34.5116 31.973 33.7799C32.278 33.5083 32.6013 32.9833 32.8813 32.0999C33.1547 31.2333 33.348 30.1366 33.4813 28.8533C33.6863 26.8766 33.7347 24.5749 33.7463 22.1816L25.4163 24.6799V25.2699C25.4163 26.1199 24.898 26.8866 24.1063 27.2033L22.9397 27.6699C21.0524 28.4248 18.947 28.4248 17.0597 27.6699L15.893 27.2033C15.5065 27.0488 15.1751 26.782 14.9416 26.4374C14.7082 26.0928 14.5832 25.6862 14.583 25.2699V24.6799L6.25301 22.1816ZM17.083 22.0833V24.9866L17.988 25.3483C19.2797 25.8649 20.7213 25.8649 22.0113 25.3483L22.9163 24.9866V22.0833H17.083Z" fill="white"/>
</svg>
