<svg width="70" height="70" viewBox="0 0 70 70" fill="none" xmlns="http://www.w3.org/2000/svg">
<path d="M58.333 5.83325H23.333C21.7859 5.83325 20.3022 6.44783 19.2082 7.5418C18.1143 8.63576 17.4997 10.1195 17.4997 11.6666V46.6666C17.4997 48.2137 18.1143 49.6974 19.2082 50.7914C20.3022 51.8853 21.7859 52.4999 23.333 52.4999H58.333C59.8801 52.4999 61.3638 51.8853 62.4578 50.7914C63.5518 49.6974 64.1663 48.2137 64.1663 46.6666V11.6666C64.1663 10.1195 63.5518 8.63576 62.4578 7.5418C61.3638 6.44783 59.8801 5.83325 58.333 5.83325ZM58.333 46.6666H23.333V11.6666H58.333V46.6666ZM46.6663 58.3333V64.1666H11.6663C10.1192 64.1666 8.63551 63.552 7.54155 62.458C6.44759 61.3641 5.83301 59.8803 5.83301 58.3333V20.4166H11.6663V58.3333H46.6663ZM54.0455 23.5083L50.9538 20.4166L36.7205 34.6499L30.5372 28.4666L27.4455 31.5583L36.7205 40.8333L54.0455 23.5083Z" fill="white"/>
</svg>
