<svg width="25" height="25" viewBox="0 0 25 25" fill="none" xmlns="http://www.w3.org/2000/svg">
<g id="invoice-list-outline">
<path id="Vector" d="M17.7083 7.29167V9.375H15.625V7.29167H17.7083ZM13.5417 7.29167V9.375H7.29167V7.29167H13.5417ZM13.5417 11.4583H7.29167V13.5417H13.5417V11.4583ZM15.625 11.4583V13.5417H17.7083V11.4583H15.625ZM21.875 22.9167L18.75 20.8333L15.625 22.9167L12.5 20.8333L9.375 22.9167L6.25 20.8333L3.125 22.9167V3.125H21.875V22.9167ZM19.7917 19.0208V5.20833H5.20833V19.0208L6.25 18.3333L9.375 20.4167L12.5 18.3333L15.625 20.4167L18.75 18.3333L19.7917 19.0208Z" fill="white"/>
</g>
</svg>
