<svg width="69" height="69" viewBox="0 0 69 69" fill="none" xmlns="http://www.w3.org/2000/svg">
<path d="M48.875 54.625V63.25H43.125V54.625C43.125 51.4625 40.5375 48.875 37.375 48.875H28.75C20.7 48.875 14.375 42.55 14.375 34.5C14.375 31.05 15.525 28.175 17.5375 25.5875C10.925 24.4375 5.75 18.4 5.75 11.5C5.75 9.4875 6.325 7.475 6.9 5.75H13.8C12.3625 7.1875 11.5 9.2 11.5 11.5C11.5 16.3875 15.2375 20.125 20.125 20.125H28.75V25.875C23.8625 25.875 20.125 29.6125 20.125 34.5C20.125 39.3875 23.8625 43.125 28.75 43.125H37.375C43.7 43.125 48.875 48.3 48.875 54.625ZM51.4625 25.5875C58.075 24.4375 63.25 18.4 63.25 11.5C63.25 9.4875 62.675 7.475 62.1 5.75H55.2C56.6375 7.1875 57.5 9.2 57.5 11.5C57.5 16.3875 53.7625 20.125 48.875 20.125H45.425C45.7125 20.9875 46 21.85 46 23C46 27.8875 42.2625 31.625 37.375 31.625V37.375C45.425 37.375 51.75 43.7 51.75 51.75V63.25H57.5V51.75C57.5 43.9875 53.1875 37.375 46.575 33.925C49.1625 31.9125 50.8875 29.0375 51.4625 25.5875Z" fill="white"/>
</svg>
