<svg width="40" height="40" viewBox="0 0 40 40" fill="none" xmlns="http://www.w3.org/2000/svg">
<g clip-path="url(#clip0_12319_265)">
<path d="M33.6776 0.596284L28.1857 3.89157L27.1755 2.88113C26.7178 2.42368 25.9759 2.42368 25.5181 2.88113L22.2039 6.19565C21.7462 6.65341 21.7462 7.39529 22.2039 7.85275L23.0325 8.68161L21.2927 10.4214C19.0408 8.92636 15.9408 9.14426 13.9178 11.1673L0.343322 24.7418C-0.114441 25.1996 -0.114441 25.9414 0.343322 26.3989L13.601 39.657C14.0585 40.1144 14.8007 40.1144 15.2581 39.657L28.8326 26.0824C30.8535 24.0616 31.0754 20.9616 29.5785 18.7076L31.3186 16.9677L32.1471 17.7963C32.6046 18.2538 33.3468 18.2541 33.8042 17.7963L37.1187 14.4818C37.5765 14.024 37.5765 13.2821 37.1187 12.8247L36.1086 11.8142L39.4036 6.3223C40.3908 4.67709 40.1326 2.58054 38.7761 1.22403C37.4193 -0.132781 35.3228 -0.390654 33.6776 0.596284ZM26.347 11.9961L24.6896 13.6532L23.0325 11.9961L24.6896 10.3387L26.347 11.9961ZM20.5465 12.8247L23.0325 15.3103L19.2919 19.0509C18.7075 17.9062 17.9446 16.8515 17.0367 15.9433L14.7464 13.6532L15.5749 12.8247C16.9488 11.4508 19.1726 11.4505 20.5465 12.8247ZM14.4296 37.171L2.82897 25.5703L13.0893 15.3103L15.3793 17.6007C16.2957 18.5171 17.0294 19.6182 17.5274 20.8154L11.9436 26.3992C11.4862 26.857 11.4862 27.5988 11.9436 28.0563C12.4014 28.5141 13.1433 28.5141 13.601 28.0563L18.4869 23.1704C19.0713 24.3152 19.8342 25.3698 20.7421 26.278L23.0325 28.5684L14.4296 37.171ZM27.1755 24.425L24.6896 26.911L22.3992 24.6206C21.4828 23.7042 20.7495 22.6031 20.2514 21.4059L24.6896 16.9677L27.1755 19.4534C28.5494 20.8273 28.5494 23.0511 27.1755 24.425ZM28.0041 16.9677L26.347 15.3103L28.0041 13.6532L29.6615 15.3103L28.0041 16.9677ZM32.9757 15.3103L24.6896 7.0242L26.347 5.3671L34.6331 13.6532L32.9757 15.3103ZM37.394 5.11655L34.4002 10.1062L29.894 5.59964L34.8833 2.60587C35.6048 2.17313 36.524 2.28635 37.1187 2.88113C37.7135 3.47592 37.8267 4.39542 37.394 5.11655Z" fill="white"/>
</g>
<defs>
<clipPath id="clip0_12319_265">
<rect width="40" height="40" fill="white"/>
</clipPath>
</defs>
</svg>
