<svg width="1060" height="344" viewBox="0 0 1060 344" fill="none" xmlns="http://www.w3.org/2000/svg">
<path d="M412.292 148.851V45.7228H372.815V23.6338H475.428V45.7228H435.951V148.851H412.292ZM1035.64 90.9381C1034.95 86.044 1033.57 81.8362 1031.62 79.1422C1028.58 74.9401 1023.59 72.853 1016.69 72.853C1008.64 72.853 1002.73 75.2859 998.925 80.1857C996.98 82.7036 995.199 87.1895 994.264 90.9381H1035.64ZM993.64 108.502C994.428 113.815 996.26 118.823 998.925 122.186C1002.73 126.966 1008.29 129.371 1015.65 129.371C1020.29 129.371 1024.26 128.362 1027.56 126.331C1030.86 124.301 1033.39 121.375 1035.13 117.547L1058.78 124.329C1055.24 132.91 1049.65 139.573 1042.07 144.331C1034.43 149.084 1026.09 151.46 1017.04 151.46C1007.43 151.46 998.959 149.373 991.621 145.228C984.288 141.082 978.555 135.371 974.409 128.101C970.264 120.853 968.171 112.505 968.171 103.114C968.171 92.8551 970.196 83.9229 974.267 76.3294C978.316 68.736 983.908 62.8267 991.042 58.6186C998.176 54.4449 1006.38 52.3295 1015.65 52.3295C1025.51 52.3295 1033.88 54.649 1040.78 59.2879C1047.68 63.9269 1052.78 70.4485 1056.08 78.853C1059.39 87.2576 1060.55 97.1422 1059.57 108.502H993.64ZM823.581 90.9381C822.889 86.044 821.517 81.8362 819.56 79.1422C816.52 74.9401 811.536 72.853 804.634 72.853C796.581 72.853 790.672 75.2859 786.866 80.1857C784.921 82.7036 783.14 87.1895 782.205 90.9381H823.581ZM781.575 108.502C782.364 113.815 784.201 118.823 786.866 122.186C790.672 126.966 796.229 129.371 803.59 129.371C808.235 129.371 812.199 128.362 815.505 126.331C818.806 124.301 821.335 121.375 823.071 117.547L846.725 124.329C843.186 132.91 837.594 139.573 830.001 144.331C822.373 149.084 814.031 151.46 804.986 151.46C795.362 151.46 786.901 149.373 779.562 145.228C772.229 141.082 766.496 135.371 762.35 128.101C758.205 120.853 756.112 112.505 756.112 103.114C756.112 92.8551 758.137 83.9229 762.209 76.3294C766.258 68.736 771.855 62.8267 778.984 58.6186C786.118 54.4449 794.318 52.3295 803.59 52.3295C813.447 52.3295 821.823 54.649 828.719 59.2879C835.621 63.9269 840.724 70.4485 844.025 78.853C847.331 87.2576 848.494 97.1422 847.507 108.502H781.575ZM537.679 90.9381C536.993 86.044 535.615 81.8362 533.664 79.1422C530.619 74.9401 525.634 72.853 518.726 72.853C510.679 72.853 504.764 75.2859 500.959 80.1857C499.019 82.7036 497.244 87.1895 496.303 90.9381H537.679ZM495.673 108.502C496.462 113.815 498.299 118.823 500.959 122.186C504.764 126.966 510.322 129.371 517.689 129.371C522.327 129.371 526.297 128.362 529.598 126.331C532.91 124.301 535.428 121.375 537.169 117.547L560.823 124.329C557.284 132.91 551.692 139.573 544.099 144.331C536.471 149.084 528.123 151.46 519.084 151.46C509.46 151.46 500.993 149.373 493.654 145.228C486.327 141.082 480.589 135.371 476.448 128.101C472.303 120.853 470.216 112.505 470.216 103.114C470.216 92.8551 472.241 83.9229 476.301 76.3294C480.356 68.736 485.953 62.8267 493.082 58.6186C500.216 54.4449 508.416 52.3295 517.689 52.3295C527.539 52.3295 535.921 54.649 542.823 59.2879C549.719 63.9269 554.823 70.4485 558.123 78.853C561.424 87.2576 562.587 97.1422 561.605 108.502H495.673ZM581.165 148.851V54.9381H602.04V70.046C602.738 68.8267 603.793 67.1932 604.649 66.0707C606.674 63.405 609.157 61.1989 612.123 59.4637C614.386 58.0687 616.836 56.9968 619.507 56.1857C622.184 55.4317 624.929 54.9381 627.776 54.7056C630.617 54.5356 633.458 54.5923 636.288 54.9381V77.0271C633.679 76.2161 630.662 75.9269 627.225 76.1877C623.749 76.4485 620.642 77.2596 617.862 78.5922C615.078 79.8682 612.719 81.5467 610.819 83.6621C608.908 85.7775 607.451 88.2728 606.475 91.1422C605.483 94.0403 604.995 97.2559 604.995 100.851V148.851H581.165ZM676.467 145.579V190.591H652.637V54.9381H673.507V60.099C673.91 59.7868 674.738 59.1519 675.163 58.851C681.242 54.5072 688.751 52.3295 697.672 52.3295C706.66 52.3295 714.498 54.4789 721.161 58.766C727.819 63.0535 732.991 68.9117 736.7 76.3578C740.341 83.8095 742.195 92.3331 742.195 101.895C742.195 111.286 740.369 119.719 736.774 127.199C733.133 134.679 728.091 140.589 721.598 144.938C715.093 149.288 707.539 151.46 698.902 151.46C690.073 151.46 682.535 149.464 676.467 145.579ZM695.063 130.414C700.173 130.414 704.352 129.144 707.585 126.592C710.84 124.04 713.244 120.621 714.815 116.271C716.369 111.955 717.152 107.169 717.152 101.895C717.152 96.6773 716.352 91.9249 714.719 87.575C713.103 83.2596 710.602 79.8115 707.21 77.2312C703.825 74.651 699.481 73.375 694.207 73.375C689.267 73.375 685.281 74.5659 682.263 76.9421C679.218 79.3183 676.989 82.6469 675.589 86.9401C674.21 91.2276 673.507 96.2124 673.507 101.895C673.507 107.577 674.21 112.562 675.589 116.849C676.989 121.143 679.28 124.477 682.439 126.853C685.564 129.229 689.789 130.414 695.063 130.414ZM888.288 101.203V148.851H864.282V54.9381H885.339V64.6186C887.466 62.2764 890.103 59.9853 892.859 58.1594C898.887 54.1557 906.543 52.1594 915.764 52.1594C923.131 52.1594 929.131 53.4013 933.77 55.8966C938.398 58.3918 942.033 61.5508 944.607 65.373C947.148 69.2009 949.003 73.1705 950.12 77.3163C951.22 81.4617 951.878 85.2559 952.116 88.6809C952.349 92.1007 952.462 94.5902 952.462 96.1557V148.851H928.456V104.504C928.456 102.36 928.349 99.6378 928.111 96.2748C927.872 92.9684 927.152 89.6054 925.944 86.2424C924.713 82.8797 922.757 80.0723 919.995 77.8095C917.239 75.5467 913.326 74.4185 908.284 74.4185C906.26 74.4185 904.082 74.736 901.768 75.3766C899.443 76.012 897.277 77.2312 895.252 79.0571C893.222 80.8834 891.555 83.5771 890.25 87.1158C888.946 90.6489 888.288 95.3446 888.288 101.203Z" fill="black"/>
<path d="M660.282 282.644V330.292H636.282V236.379H657.333V246.06C659.46 243.717 662.102 241.426 664.859 239.6C670.887 235.596 678.543 233.6 687.759 233.6C695.131 233.6 701.131 234.842 705.764 237.338C710.397 239.833 714.027 242.991 716.602 246.814C719.148 250.642 721.002 254.612 722.119 258.757C723.22 262.903 723.872 266.697 724.11 270.122C724.348 273.542 724.456 276.031 724.456 277.596V330.292H700.456V285.944C700.456 283.8 700.343 281.078 700.104 277.715C699.872 274.409 699.152 271.046 697.944 267.683C696.713 264.32 694.751 261.513 692 259.251C689.239 256.988 685.326 255.859 680.278 255.859C678.254 255.859 676.087 256.177 673.762 256.818C671.443 257.453 669.271 258.672 667.246 260.498C665.222 262.324 663.554 265.018 662.25 268.557C660.946 272.09 660.282 276.786 660.282 282.644ZM372.815 330.292V205.075H422.908C431.834 205.075 439.042 206.844 444.56 210.411C450.067 214.007 454.093 218.47 456.639 223.857C459.197 229.251 460.473 234.7 460.473 240.207C460.473 247.222 458.868 253.046 455.738 257.685C454.025 260.181 451.076 262.818 448.7 264.417C453.379 266.385 457.586 269.555 460.36 273.513C464.244 279.133 466.201 285.423 466.201 292.381C466.201 299.855 464.823 306.439 462.084 312.116C459.305 317.799 455.142 322.234 449.505 325.449C443.896 328.67 436.813 330.292 428.301 330.292H372.815ZM594.798 270.99C594.1 266.096 592.722 261.888 590.772 259.194C587.738 254.991 582.741 252.905 575.845 252.905C567.787 252.905 561.883 255.338 558.078 260.237C556.127 262.755 554.352 267.241 553.416 270.99H594.798ZM552.793 288.553C553.581 293.867 555.407 298.874 558.078 302.237C561.883 307.018 567.441 309.423 574.807 309.423C579.446 309.423 583.416 308.413 586.717 306.383C590.017 304.353 592.547 301.426 594.288 297.598L617.93 304.381C614.397 312.961 608.806 319.625 601.218 324.383C593.579 329.135 585.242 331.511 576.191 331.511C566.579 331.511 558.112 329.425 550.774 325.279C543.435 321.133 537.707 315.423 533.556 308.152C529.41 300.905 527.323 292.557 527.323 283.165C527.323 272.906 529.348 263.975 533.42 256.381C537.469 248.787 543.061 242.878 550.19 238.67C557.324 234.496 565.524 232.381 574.807 232.381C584.658 232.381 593.029 234.7 599.93 239.339C606.838 243.978 611.93 250.5 615.242 258.905C618.543 267.309 619.706 277.194 618.719 288.553H552.793ZM890.721 332.901C878.891 332.901 869.324 330.207 862.082 324.842C854.811 319.511 850.377 311.918 848.811 302.118L872.981 298.466C873.957 302.872 876.169 306.32 879.549 308.816C882.94 311.305 887.244 312.553 892.462 312.553C896.749 312.553 900.05 311.714 902.375 310.063C904.683 308.436 905.846 306.116 905.846 303.162C905.846 301.307 905.375 299.799 904.462 298.67C903.52 297.542 901.462 296.436 898.257 295.336C895.008 294.235 890.023 292.784 883.246 290.986C875.59 289.018 869.465 286.818 864.895 284.379C860.307 281.946 857.006 279.048 854.982 275.629C852.957 272.266 851.931 268.148 851.931 263.339C851.931 257.311 853.479 252.06 856.536 247.625C859.615 243.224 863.97 239.799 869.562 237.366C875.154 234.99 881.738 233.771 889.32 233.771C896.692 233.771 903.209 234.905 908.896 237.161C914.562 239.424 919.184 242.64 922.689 246.814C926.188 250.988 928.343 255.916 929.142 261.598L904.983 265.948C904.575 262.466 903.066 259.715 900.458 257.685C897.849 255.655 894.316 254.47 889.853 254.118C885.503 253.829 882.016 254.407 879.379 255.859C876.753 257.311 875.42 259.392 875.42 262.12C875.42 263.742 875.999 265.103 877.127 266.209C878.244 267.309 880.604 268.438 884.171 269.6C887.704 270.757 893.154 272.266 900.458 274.12C907.592 275.975 913.326 278.147 917.647 280.585C921.968 283.075 925.088 286.035 927.067 289.455C929.029 292.903 930.027 297.077 930.027 301.943C930.027 311.566 926.534 319.131 919.592 324.638C912.634 330.145 902.998 332.901 890.721 332.901ZM808.813 324.893C808.331 325.268 807.31 326.022 806.8 326.379C800.551 330.729 792.741 332.901 783.407 332.901C774.77 332.901 767.216 330.729 760.728 326.379C754.223 322.029 749.182 316.12 745.569 308.64C741.946 301.16 740.119 292.727 740.119 283.336C740.119 273.774 741.974 265.251 745.649 257.799C749.324 250.353 754.496 244.495 761.148 240.207C767.828 235.92 775.655 233.771 784.638 233.771C792.906 233.771 799.972 235.642 805.796 239.373L805.842 205.075H829.672V330.292H808.813V324.893ZM787.246 311.856C792.52 311.856 796.751 310.67 799.904 308.294C803.063 305.918 805.326 302.583 806.726 298.29C808.104 294.003 808.813 289.018 808.813 283.336C808.813 277.653 808.104 272.668 806.726 268.381C805.326 264.088 803.131 260.759 800.074 258.383C797.046 256.007 793.042 254.816 788.108 254.816C782.828 254.816 778.496 256.092 775.133 258.672C771.742 261.253 769.212 264.701 767.596 269.016C765.974 273.366 765.163 278.118 765.163 283.336C765.163 288.61 765.946 293.396 767.499 297.712C769.071 302.062 771.475 305.481 774.724 308.033C777.963 310.585 782.136 311.856 787.246 311.856ZM485.335 330.292V202.466H508.995V330.292H485.335ZM396.815 308.033H425.868C429.055 308.033 431.896 307.336 434.375 305.975C436.876 304.642 438.838 302.725 440.273 300.235C441.679 297.768 442.388 294.871 442.388 291.508C442.388 288.553 441.781 285.916 440.55 283.596C439.343 281.277 437.516 279.451 435.055 278.062C432.588 276.729 429.509 276.031 425.868 276.031H396.815V308.033ZM396.815 253.948H422.562C425.216 253.948 427.603 253.483 429.679 252.553C431.766 251.629 433.433 250.177 434.647 248.237C435.855 246.292 436.467 243.802 436.467 240.729C436.467 236.901 435.288 233.685 432.9 231.076C430.53 228.468 427.07 227.164 422.562 227.164H396.815V253.948Z" fill="black"/>
<path fill-rule="evenodd" clip-rule="evenodd" d="M110.857 60.9286H50.0172V0.100586H0.248047V60.9286V110.715V171.543H50.0172V110.715H110.857V60.9286Z" fill="black"/>
<path fill-rule="evenodd" clip-rule="evenodd" d="M141.594 60.9287C219.673 60.9287 282.957 124.218 282.957 202.292C282.957 280.36 219.673 343.655 141.594 343.655C63.526 343.655 0.248047 280.36 0.248047 202.292H49.9038C49.9038 252.935 90.9627 293.993 141.594 293.993C192.242 293.993 233.296 252.935 233.296 202.292C233.296 151.643 192.242 110.591 141.594 110.591V60.9287Z" fill="url(#paint0_linear_16219_802)"/>
<defs>
<linearGradient id="paint0_linear_16219_802" x1="-11.9334" y1="33.3673" x2="296.959" y2="372.271" gradientUnits="userSpaceOnUse">
<stop stop-color="#FEE1AA"/>
<stop offset="0.14902" stop-color="#AA7E4C"/>
<stop offset="0.309804" stop-color="#B49565"/>
<stop offset="0.509804" stop-color="#FEE1AA"/>
<stop offset="0.690196" stop-color="#B49365"/>
<stop offset="0.870588" stop-color="#AA7F4B"/>
<stop offset="1" stop-color="#CFA66D"/>
</linearGradient>
</defs>
</svg>
