<svg width="469" height="494" viewBox="0 0 469 494" fill="none" xmlns="http://www.w3.org/2000/svg">
<path d="M27.3684 367.897V297.712H0.501953V282.679H70.3367V297.712H43.4703V367.897H27.3684ZM243.271 458.952V491.38H226.937V427.465H241.264V434.054C242.711 432.46 244.51 430.901 246.386 429.658C250.488 426.933 255.699 425.574 261.97 425.574C266.988 425.574 271.071 426.42 274.225 428.118C277.378 429.816 279.848 431.966 281.6 434.567C283.333 437.172 284.595 439.874 285.355 442.695C286.104 445.516 286.548 448.099 286.71 450.43C286.872 452.757 286.945 454.451 286.945 455.517V491.38H270.612V461.198C270.612 459.739 270.535 457.886 270.373 455.598C270.215 453.348 269.724 451.059 268.902 448.77C268.065 446.481 266.729 444.571 264.858 443.031C262.978 441.491 260.315 440.723 256.88 440.723C255.502 440.723 254.028 440.939 252.445 441.375C250.866 441.808 249.388 442.637 248.011 443.88C246.633 445.123 245.498 446.956 244.61 449.364C243.723 451.769 243.271 454.965 243.271 458.952ZM451.597 328.484C451.126 325.153 450.189 322.289 448.861 320.456C446.792 317.596 443.4 316.176 438.703 316.176C433.222 316.176 429.201 317.831 426.611 321.166C425.287 322.88 424.075 325.932 423.438 328.484H451.597ZM423.013 340.437C423.55 344.053 424.797 347.461 426.611 349.75C429.201 353.003 432.983 354.64 437.993 354.64C441.153 354.64 443.851 353.953 446.102 352.571C448.348 351.19 450.069 349.198 451.25 346.593L467.344 351.209C464.94 357.048 461.134 361.583 455.97 364.821C450.775 368.056 445.098 369.673 438.938 369.673C432.396 369.673 426.634 368.253 421.64 365.431C416.649 362.61 412.747 358.723 409.926 353.775C407.105 348.843 405.681 343.161 405.681 336.77C405.681 329.788 407.058 323.709 409.829 318.542C412.585 313.374 416.391 309.352 421.246 306.488C426.101 303.648 431.682 302.208 437.993 302.208C444.7 302.208 450.401 303.787 455.094 306.944C459.791 310.101 463.261 314.539 465.511 320.259C467.761 325.979 468.552 332.706 467.881 340.437H423.013ZM307.277 328.484C306.807 325.153 305.873 322.289 304.541 320.456C302.473 317.596 299.08 316.176 294.383 316.176C288.902 316.176 284.881 317.831 282.291 321.166C280.967 322.88 279.755 325.932 279.118 328.484H307.277ZM278.69 340.437C279.227 344.053 280.477 347.461 282.291 349.75C284.881 353.003 288.663 354.64 293.673 354.64C296.834 354.64 299.532 353.953 301.782 352.571C304.028 351.19 305.749 349.198 306.93 346.593L323.028 351.209C320.62 357.048 316.815 361.583 311.647 364.821C306.455 368.056 300.778 369.673 294.622 369.673C288.073 369.673 282.314 368.253 277.32 365.431C272.33 362.61 268.428 358.723 265.606 353.775C262.785 348.843 261.361 343.161 261.361 336.77C261.361 329.788 262.739 323.709 265.51 318.542C268.266 313.374 272.075 309.352 276.926 306.488C281.781 303.648 287.362 302.208 293.673 302.208C300.381 302.208 306.081 303.787 310.774 306.944C315.471 310.101 318.945 314.539 321.191 320.259C323.441 325.979 324.232 332.706 323.561 340.437H278.69ZM112.703 328.484C112.236 325.153 111.298 322.289 109.97 320.456C107.898 317.596 104.505 316.176 99.8042 316.176C94.3277 316.176 90.3021 317.831 87.7124 321.166C86.3922 322.88 85.1842 325.932 84.5436 328.484H112.703ZM84.115 340.437C84.6517 344.053 85.902 347.461 87.7124 349.75C90.3021 353.003 94.0843 354.64 99.0978 354.64C102.255 354.64 104.957 353.953 107.203 352.571C109.457 351.19 111.17 349.198 112.355 346.593L128.453 351.209C126.045 357.048 122.24 361.583 117.072 364.821C111.881 368.056 106.2 369.673 100.047 369.673C93.4977 369.673 87.7354 368.253 82.7411 365.431C77.7548 362.61 73.8487 358.723 71.0314 353.775C68.21 348.843 66.7896 343.161 66.7896 336.77C66.7896 329.788 68.1677 323.709 70.9309 318.542C73.6907 313.374 77.5001 309.352 82.3515 306.488C87.2067 303.648 92.7875 302.208 99.0978 302.208C105.802 302.208 111.506 303.787 116.203 306.944C120.897 310.101 124.37 314.539 126.617 320.259C128.863 325.979 129.654 332.706 128.986 340.437H84.115ZM47.6308 491.38V406.161H81.7222C87.797 406.161 92.7025 407.365 96.4578 409.793C100.206 412.24 102.946 415.277 104.679 418.944C106.42 422.614 107.288 426.323 107.288 430.071C107.288 434.845 106.196 438.808 104.065 441.966C102.9 443.664 100.893 445.459 99.2755 446.547C102.46 447.886 105.323 450.044 107.211 452.738C109.854 456.562 111.186 460.843 111.186 465.579C111.186 470.665 110.248 475.146 108.384 479.009C106.493 482.877 103.66 485.895 99.8235 488.083C96.0066 490.275 91.1858 491.38 85.3929 491.38H47.6308ZM198.705 451.02C198.23 447.69 197.292 444.826 195.965 442.992C193.9 440.132 190.499 438.712 185.806 438.712C180.322 438.712 176.304 440.368 173.714 443.703C172.387 445.416 171.179 448.469 170.542 451.02H198.705ZM170.117 462.973C170.654 466.59 171.897 469.998 173.714 472.286C176.304 475.54 180.086 477.176 185.1 477.176C188.257 477.176 190.959 476.489 193.205 475.107C195.451 473.726 197.173 471.734 198.357 469.129L214.448 473.745C212.043 479.585 208.238 484.12 203.074 487.358C197.875 490.592 192.202 492.209 186.042 492.209C179.5 492.209 173.738 490.789 168.743 487.968C163.749 485.146 159.851 481.26 157.026 476.312C154.205 471.379 152.784 465.698 152.784 459.307C152.784 452.325 154.162 446.246 156.933 441.078C159.689 435.91 163.494 431.889 168.346 429.025C173.201 426.184 178.782 424.745 185.1 424.745C191.804 424.745 197.501 426.323 202.198 429.48C206.899 432.637 210.365 437.076 212.619 442.796C214.865 448.515 215.656 455.243 214.984 462.973H170.117ZM400.1 493.155C392.049 493.155 385.538 491.322 380.609 487.67C375.661 484.042 372.643 478.875 371.577 472.205L388.027 469.72C388.691 472.718 390.196 475.065 392.496 476.763C394.804 478.458 397.734 479.307 401.285 479.307C404.202 479.307 406.449 478.735 408.031 477.613C409.602 476.505 410.393 474.926 410.393 472.915C410.393 471.653 410.073 470.627 409.451 469.858C408.81 469.09 407.409 468.338 405.229 467.589C403.018 466.841 399.625 465.853 395.013 464.629C389.802 463.29 385.634 461.792 382.523 460.133C379.401 458.477 377.155 456.505 375.777 454.177C374.399 451.889 373.7 449.087 373.7 445.814C373.7 441.711 374.754 438.137 376.834 435.119C378.93 432.124 381.894 429.793 385.7 428.137C389.505 426.52 393.986 425.69 399.146 425.69C404.163 425.69 408.598 426.462 412.469 427.998C416.325 429.538 419.471 431.726 421.856 434.567C424.237 437.408 425.704 440.762 426.248 444.629L409.806 447.589C409.529 445.219 408.502 443.347 406.726 441.966C404.951 440.584 402.547 439.778 399.509 439.538C396.549 439.341 394.175 439.735 392.38 440.723C390.593 441.711 389.686 443.127 389.686 444.984C389.686 446.088 390.08 447.014 390.848 447.767C391.609 448.515 393.214 449.283 395.642 450.075C398.046 450.862 401.755 451.889 406.726 453.151C411.582 454.413 415.484 455.891 418.425 457.55C421.366 459.245 423.488 461.26 424.835 463.587C426.171 465.933 426.85 468.774 426.85 472.086C426.85 478.635 424.472 483.784 419.748 487.532C415.013 491.279 408.456 493.155 400.1 493.155ZM344.356 487.705C344.028 487.96 343.333 488.473 342.986 488.716C338.733 491.677 333.418 493.155 327.066 493.155C321.187 493.155 316.046 491.677 311.631 488.716C307.204 485.756 303.773 481.735 301.314 476.644C298.848 471.553 297.606 465.814 297.606 459.422C297.606 452.915 298.868 447.114 301.368 442.043C303.87 436.975 307.39 432.988 311.917 430.071C316.463 427.153 321.789 425.69 327.903 425.69C333.53 425.69 338.339 426.964 342.303 429.503L342.334 406.161H358.552V491.38H344.356V487.705ZM329.678 478.832C333.268 478.832 336.147 478.025 338.293 476.408C340.442 474.791 341.983 472.522 342.936 469.6C343.874 466.682 344.356 463.29 344.356 459.422C344.356 455.555 343.874 452.163 342.936 449.245C341.983 446.323 340.489 444.058 338.409 442.441C336.348 440.823 333.623 440.013 330.265 440.013C326.672 440.013 323.723 440.881 321.434 442.637C319.126 444.394 317.405 446.74 316.305 449.677C315.201 452.637 314.649 455.872 314.649 459.422C314.649 463.012 315.182 466.269 316.239 469.207C317.309 472.167 318.945 474.494 321.157 476.231C323.361 477.967 326.201 478.832 329.678 478.832ZM124.208 491.38V404.385H140.31V491.38H124.208ZM63.9644 476.231H83.7371C85.9061 476.231 87.8397 475.756 89.5262 474.83C91.2285 473.923 92.5638 472.618 93.54 470.924C94.4974 469.245 94.9797 467.273 94.9797 464.984C94.9797 462.973 94.5669 461.178 93.7294 459.6C92.9073 458.021 91.6646 456.779 89.9895 455.833C88.3107 454.926 86.2149 454.451 83.7371 454.451H63.9644V476.231ZM63.9644 439.422H81.4867C83.293 439.422 84.9182 439.106 86.3306 438.473C87.7509 437.844 88.8855 436.856 89.7114 435.536C90.5338 434.212 90.9503 432.517 90.9503 430.426C90.9503 427.821 90.1475 425.632 88.5227 423.857C86.9096 422.081 84.5553 421.194 81.4867 421.194H63.9644V439.422ZM142.298 367.897V303.984H156.505V314.265C156.979 313.435 157.697 312.324 158.28 311.56C159.658 309.746 161.349 308.244 163.367 307.063C164.907 306.114 166.574 305.384 168.392 304.832C170.214 304.319 172.082 303.984 174.02 303.825C175.953 303.71 177.887 303.748 179.812 303.984V319.016C178.037 318.464 175.984 318.268 173.645 318.445C171.279 318.622 169.164 319.175 167.273 320.082C165.378 320.95 163.772 322.092 162.479 323.532C161.179 324.972 160.187 326.67 159.523 328.623C158.847 330.595 158.515 332.783 158.515 335.23V367.897H142.298ZM207.157 365.67V396.304H190.94V303.984H205.143V307.496C205.417 307.283 205.98 306.851 206.269 306.647C210.407 303.69 215.517 302.208 221.588 302.208C227.705 302.208 233.04 303.671 237.574 306.588C242.105 309.506 245.625 313.493 248.149 318.561C250.627 323.632 251.89 329.433 251.89 335.94C251.89 342.332 250.646 348.071 248.2 353.162C245.722 358.252 242.291 362.274 237.872 365.234C233.445 368.194 228.304 369.673 222.426 369.673C216.416 369.673 211.287 368.314 207.157 365.67ZM219.813 355.35C223.29 355.35 226.135 354.485 228.335 352.749C230.55 351.012 232.186 348.684 233.256 345.724C234.313 342.787 234.846 339.53 234.846 335.94C234.846 332.39 234.301 329.155 233.19 326.195C232.09 323.258 230.388 320.911 228.08 319.155C225.776 317.399 222.819 316.531 219.23 316.531C215.868 316.531 213.155 317.341 211.102 318.958C209.029 320.576 207.513 322.841 206.559 325.763C205.621 328.681 205.143 332.073 205.143 335.94C205.143 339.807 205.621 343.2 206.559 346.118C207.513 349.04 209.072 351.309 211.221 352.926C213.348 354.543 216.223 355.35 219.813 355.35ZM351.315 335.47V367.897H334.978V303.984H349.308V310.572C350.755 308.977 352.55 307.418 354.426 306.176C358.528 303.451 363.739 302.092 370.014 302.092C375.028 302.092 379.111 302.937 382.269 304.636C385.418 306.334 387.892 308.483 389.644 311.085C391.373 313.69 392.635 316.392 393.396 319.213C394.144 322.035 394.592 324.616 394.754 326.948C394.912 329.275 394.989 330.969 394.989 332.034V367.897H378.652V337.716C378.652 336.257 378.579 334.404 378.417 332.116C378.254 329.865 377.765 327.577 376.942 325.288C376.105 323 374.773 321.089 372.894 319.549C371.018 318.009 368.355 317.241 364.924 317.241C363.546 317.241 362.064 317.457 360.489 317.893C358.907 318.325 357.432 319.155 356.055 320.398C354.673 321.641 353.538 323.474 352.65 325.883C351.763 328.287 351.315 331.483 351.315 335.47Z" fill="black"/>
<path fill-rule="evenodd" clip-rule="evenodd" d="M212.765 42.0017H171.36V0.604492H137.489V42.0017V75.8848V117.282H171.36V75.8848H212.765V42.0017Z" fill="black"/>
<path fill-rule="evenodd" clip-rule="evenodd" d="M233.684 42.002C286.822 42.002 329.891 85.0746 329.891 138.209C329.891 191.339 286.822 234.416 233.684 234.416C180.554 234.416 137.489 191.339 137.489 138.209H171.283C171.283 172.675 199.226 200.618 233.684 200.618C268.154 200.618 296.093 172.675 296.093 138.209C296.093 103.739 268.154 75.8 233.684 75.8V42.002Z" fill="url(#paint0_linear_16211_799)"/>
<defs>
<linearGradient id="paint0_linear_16211_799" x1="129.198" y1="23.2449" x2="339.42" y2="253.891" gradientUnits="userSpaceOnUse">
<stop stop-color="#FEE1AA"/>
<stop offset="0.14902" stop-color="#AA7E4C"/>
<stop offset="0.309804" stop-color="#B49565"/>
<stop offset="0.509804" stop-color="#FEE1AA"/>
<stop offset="0.690196" stop-color="#B49365"/>
<stop offset="0.870588" stop-color="#AA7F4B"/>
<stop offset="1" stop-color="#CFA66D"/>
</linearGradient>
</defs>
</svg>
