<svg width="1180" height="664" viewBox="0 0 1180 664" fill="none" xmlns="http://www.w3.org/2000/svg">
<path d="M487.35 312.005V222.565H453.113V203.408H542.105V222.565H507.869V312.005H487.35ZM1027.96 261.779C1027.36 257.534 1026.16 253.885 1024.47 251.548C1021.83 247.904 1017.51 246.094 1011.52 246.094C1004.54 246.094 999.414 248.204 996.114 252.453C994.427 254.637 992.883 258.528 992.071 261.779H1027.96ZM991.53 277.011C992.214 281.619 993.802 285.962 996.114 288.878C999.414 293.025 1004.23 295.11 1010.62 295.11C1014.65 295.11 1018.08 294.235 1020.95 292.474C1023.81 290.713 1026.01 288.175 1027.51 284.856L1048.02 290.738C1044.96 298.179 1040.11 303.958 1033.53 308.085C1026.91 312.206 1019.67 314.267 1011.82 314.267C1003.49 314.267 996.144 312.457 989.779 308.862C983.42 305.266 978.448 300.314 974.852 294.008C971.257 287.723 969.442 280.483 969.442 272.338C969.442 263.441 971.198 255.695 974.729 249.109C978.241 242.524 983.09 237.399 989.278 233.749C995.465 230.129 1002.58 228.295 1010.62 228.295C1019.17 228.295 1026.43 230.306 1032.41 234.33C1038.4 238.353 1042.82 244.009 1045.69 251.298C1048.55 258.587 1049.56 267.159 1048.71 277.011H991.53ZM844.045 261.779C843.445 257.534 842.254 253.885 840.558 251.548C837.921 247.904 833.598 246.094 827.613 246.094C820.629 246.094 815.504 248.204 812.204 252.453C810.517 254.637 808.972 258.528 808.161 261.779H844.045ZM807.615 277.011C808.299 281.619 809.892 285.962 812.204 288.878C815.504 293.025 820.324 295.11 826.708 295.11C830.736 295.11 834.174 294.235 837.041 292.474C839.904 290.713 842.097 288.175 843.602 284.856L864.117 290.738C861.048 298.179 856.198 303.958 849.613 308.085C842.997 312.206 835.762 314.267 827.918 314.267C819.572 314.267 812.233 312.457 805.869 308.862C799.51 305.266 794.537 300.314 790.942 294.008C787.347 287.723 785.532 280.483 785.532 272.338C785.532 263.441 787.287 255.695 790.819 249.109C794.331 242.524 799.185 237.399 805.367 233.749C811.555 230.129 818.667 228.295 826.708 228.295C835.256 228.295 842.52 230.306 848.501 234.33C854.486 238.353 858.913 244.009 861.775 251.298C864.643 258.587 865.651 267.159 864.795 277.011H807.615ZM596.093 261.779C595.498 257.534 594.303 253.885 592.611 251.548C589.97 247.904 585.647 246.094 579.656 246.094C572.677 246.094 567.548 248.204 564.247 252.453C562.565 254.637 561.026 258.528 560.209 261.779H596.093ZM559.663 277.011C560.347 281.619 561.94 285.962 564.247 288.878C567.548 293.025 572.367 295.11 578.756 295.11C582.779 295.11 586.222 294.235 589.085 292.474C591.957 290.713 594.141 288.175 595.651 284.856L616.165 290.738C613.096 298.179 608.246 303.958 601.661 308.085C595.046 312.206 587.806 314.267 579.966 314.267C571.62 314.267 564.277 312.457 557.912 308.862C551.558 305.266 546.581 300.314 542.99 294.008C539.395 287.723 537.585 280.483 537.585 272.338C537.585 263.441 539.341 255.695 542.862 249.109C546.379 242.524 551.233 237.399 557.416 233.749C563.603 230.129 570.715 228.295 578.756 228.295C587.299 228.295 594.569 230.306 600.554 234.33C606.535 238.353 610.961 244.009 613.824 251.298C616.686 258.587 617.694 267.159 616.844 277.011H559.663ZM633.807 312.005V230.557H651.911V243.66C652.516 242.602 653.431 241.186 654.174 240.212C655.929 237.9 658.084 235.987 660.656 234.482C662.618 233.272 664.743 232.343 667.06 231.639C669.381 230.985 671.761 230.557 674.231 230.356C676.695 230.208 679.158 230.257 681.613 230.557V249.714C679.35 249.011 676.734 248.76 673.753 248.986C670.738 249.212 668.043 249.916 665.633 251.072C663.218 252.178 661.172 253.634 659.525 255.468C657.867 257.303 656.603 259.467 655.757 261.956C654.897 264.469 654.474 267.258 654.474 270.376V312.005H633.807ZM716.459 309.167V348.203H695.792V230.557H713.892V235.033C714.241 234.762 714.959 234.212 715.328 233.951C720.6 230.184 727.112 228.295 734.849 228.295C742.644 228.295 749.441 230.159 755.22 233.877C760.994 237.595 765.48 242.676 768.697 249.134C771.854 255.596 773.462 262.988 773.462 271.281C773.462 279.426 771.879 286.739 768.76 293.227C765.603 299.714 761.23 304.839 755.599 308.611C749.958 312.383 743.406 314.267 735.916 314.267C728.258 314.267 721.722 312.536 716.459 309.167ZM732.586 296.015C737.018 296.015 740.643 294.913 743.446 292.7C746.269 290.487 748.354 287.521 749.717 283.749C751.064 280.006 751.743 275.855 751.743 271.281C751.743 266.756 751.05 262.634 749.633 258.862C748.231 255.119 746.062 252.129 743.121 249.891C740.185 247.653 736.417 246.547 731.844 246.547C727.56 246.547 724.102 247.58 721.486 249.64C718.845 251.701 716.912 254.588 715.697 258.311C714.501 262.03 713.892 266.353 713.892 271.281C713.892 276.209 714.501 280.532 715.697 284.25C716.912 287.974 718.899 290.865 721.638 292.926C724.348 294.987 728.012 296.015 732.586 296.015ZM900.163 270.681V312.005H879.344V230.557H897.605V238.953C899.45 236.921 901.737 234.934 904.127 233.351C909.355 229.879 915.995 228.147 923.992 228.147C930.381 228.147 935.584 229.224 939.608 231.388C943.621 233.553 946.774 236.292 949.006 239.607C951.21 242.927 952.818 246.37 953.787 249.965C954.741 253.56 955.312 256.851 955.519 259.821C955.72 262.787 955.818 264.946 955.818 266.304V312.005H934.999V273.543C934.999 271.684 934.906 269.324 934.699 266.407C934.492 263.539 933.868 260.623 932.82 257.706C931.753 254.79 930.056 252.355 927.661 250.393C925.271 248.43 921.877 247.452 917.505 247.452C915.749 247.452 913.86 247.727 911.854 248.283C909.837 248.834 907.958 249.891 906.202 251.475C904.442 253.059 902.996 255.395 901.865 258.464C900.733 261.528 900.163 265.6 900.163 270.681Z" fill="black"/>
<path d="M702.422 428.039V469.363H681.608V387.916H699.864V396.311C701.709 394.28 704.001 392.293 706.391 390.709C711.619 387.237 718.259 385.506 726.251 385.506C732.645 385.506 737.849 386.583 741.867 388.747C745.885 390.911 749.033 393.65 751.266 396.965C753.474 400.285 755.082 403.728 756.051 407.323C757.005 410.918 757.571 414.209 757.778 417.179C757.984 420.145 758.078 422.304 758.078 423.662V469.363H737.263V430.902C737.263 429.042 737.165 426.682 736.958 423.765C736.757 420.898 736.132 417.981 735.084 415.065C734.017 412.148 732.315 409.714 729.93 407.751C727.535 405.789 724.141 404.81 719.764 404.81C718.008 404.81 716.129 405.085 714.113 405.641C712.101 406.192 710.217 407.249 708.462 408.833C706.706 410.417 705.26 412.753 704.129 415.822C702.997 418.886 702.422 422.959 702.422 428.039ZM453.113 469.363V360.767H496.556C504.298 360.767 510.549 362.301 515.334 365.395C520.11 368.513 523.602 372.384 525.81 377.056C528.029 381.733 529.135 386.46 529.135 391.235C529.135 397.319 527.743 402.371 525.029 406.394C523.543 408.558 520.986 410.845 518.925 412.232C522.982 413.938 526.632 416.688 529.037 420.121C532.406 424.995 534.103 430.449 534.103 436.484C534.103 442.966 532.907 448.676 530.532 453.6C528.122 458.528 524.512 462.374 519.623 465.162C514.759 467.956 508.616 469.363 501.234 469.363H453.113ZM645.63 417.932C645.025 413.688 643.83 410.038 642.138 407.702C639.507 404.057 635.174 402.248 629.193 402.248C622.204 402.248 617.084 404.358 613.784 408.607C612.092 410.791 610.553 414.681 609.741 417.932H645.63ZM609.2 433.164C609.884 437.772 611.468 442.115 613.784 445.032C617.084 449.178 621.904 451.263 628.293 451.263C632.316 451.263 635.759 450.388 638.622 448.627C641.484 446.867 643.678 444.328 645.187 441.009L665.692 446.891C662.628 454.332 657.779 460.111 651.198 464.238C644.573 468.359 637.343 470.42 629.493 470.42C621.157 470.42 613.814 468.61 607.449 465.015C601.085 461.42 596.118 456.467 592.518 450.162C588.922 443.876 587.112 436.636 587.112 428.492C587.112 419.594 588.868 411.848 592.4 405.263C595.911 398.677 600.761 393.552 606.943 389.903C613.13 386.283 620.242 384.448 628.293 384.448C636.836 384.448 644.096 386.46 650.081 390.483C656.072 394.506 660.488 400.162 663.361 407.451C666.223 414.74 667.232 423.313 666.376 433.164H609.2ZM902.273 471.625C892.013 471.625 883.716 469.289 877.435 464.636C871.13 460.013 867.284 453.427 865.926 444.929L886.888 441.761C887.734 445.583 889.652 448.573 892.584 450.737C895.525 452.896 899.258 453.978 903.783 453.978C907.501 453.978 910.363 453.25 912.38 451.819C914.381 450.408 915.39 448.396 915.39 445.834C915.39 444.225 914.981 442.917 914.19 441.938C913.373 440.96 911.588 440 908.809 439.046C905.991 438.092 901.668 436.833 895.79 435.274C889.151 433.567 883.839 431.659 879.875 429.544C875.896 427.434 873.033 424.921 871.277 421.955C869.522 419.039 868.631 415.468 868.631 411.297C868.631 406.069 869.974 401.515 872.625 397.668C875.296 393.852 879.073 390.881 883.922 388.771C888.772 386.711 894.482 385.653 901.058 385.653C907.451 385.653 913.103 386.637 918.036 388.594C922.949 390.557 926.958 393.345 929.997 396.965C933.032 400.585 934.901 404.859 935.594 409.787L914.642 413.56C914.288 410.54 912.98 408.154 910.717 406.394C908.455 404.633 905.391 403.605 901.52 403.3C897.748 403.049 894.723 403.551 892.436 404.81C890.159 406.069 889.003 407.874 889.003 410.24C889.003 411.646 889.505 412.827 890.483 413.786C891.452 414.74 893.498 415.719 896.592 416.727C899.656 417.731 904.382 419.039 910.717 420.647C916.904 422.255 921.877 424.139 925.625 426.254C929.372 428.413 932.078 430.98 933.794 433.946C935.496 436.936 936.361 440.556 936.361 444.776C936.361 453.123 933.332 459.684 927.312 464.459C921.277 469.235 912.921 471.625 902.273 471.625ZM831.237 464.681C830.819 465.005 829.934 465.659 829.491 465.969C824.071 469.742 817.299 471.625 809.203 471.625C801.713 471.625 795.162 469.742 789.535 465.969C783.894 462.197 779.521 457.072 776.388 450.585C773.246 444.097 771.662 436.784 771.662 428.639C771.662 420.347 773.27 412.955 776.457 406.492C779.644 400.034 784.13 394.954 789.899 391.235C795.693 387.517 802.48 385.653 810.271 385.653C817.441 385.653 823.57 387.276 828.621 390.512L828.66 360.767H849.327V469.363H831.237V464.681ZM812.533 453.373C817.107 453.373 820.776 452.345 823.511 450.285C826.25 448.224 828.213 445.332 829.428 441.609C830.623 437.891 831.237 433.567 831.237 428.639C831.237 423.711 830.623 419.388 829.428 415.67C828.213 411.946 826.309 409.059 823.658 406.999C821.032 404.938 817.56 403.905 813.281 403.905C808.702 403.905 804.944 405.012 802.028 407.249C799.087 409.487 796.893 412.478 795.491 416.22C794.085 419.993 793.381 424.114 793.381 428.639C793.381 433.213 794.06 437.364 795.407 441.107C796.77 444.879 798.855 447.845 801.673 450.058C804.482 452.272 808.102 453.373 812.533 453.373ZM550.697 469.363V358.504H571.216V469.363H550.697ZM473.927 450.058H499.124C501.888 450.058 504.352 449.453 506.501 448.273C508.67 447.117 510.372 445.455 511.616 443.296C512.836 441.156 513.451 438.643 513.451 435.726C513.451 433.164 512.924 430.877 511.857 428.865C510.81 426.854 509.226 425.27 507.091 424.065C504.952 422.909 502.281 422.304 499.124 422.304H473.927V450.058ZM473.927 403.153H496.256C498.558 403.153 500.629 402.749 502.429 401.942C504.239 401.141 505.685 399.882 506.737 398.2C507.785 396.513 508.316 394.354 508.316 391.688C508.316 388.368 507.293 385.58 505.223 383.317C503.167 381.054 500.166 379.923 496.256 379.923H473.927V403.153Z" fill="black"/>
<path fill-rule="evenodd" clip-rule="evenodd" d="M225.927 235.754H173.163V183H130V235.754V278.932V331.686H173.163V278.932H225.927V235.754Z" fill="black"/>
<path fill-rule="evenodd" clip-rule="evenodd" d="M252.584 235.754C320.299 235.754 375.183 290.642 375.183 358.353C375.183 426.058 320.299 480.951 252.584 480.951C184.879 480.951 130 426.058 130 358.353H173.065C173.065 402.273 208.673 437.882 252.584 437.882C296.509 437.882 332.113 402.273 332.113 358.353C332.113 314.427 296.509 278.824 252.584 278.824V235.754Z" fill="url(#paint0_linear_16232_817)"/>
<defs>
<linearGradient id="paint0_linear_16232_817" x1="119.436" y1="211.851" x2="387.326" y2="505.769" gradientUnits="userSpaceOnUse">
<stop stop-color="#FEE1AA"/>
<stop offset="0.14902" stop-color="#AA7E4C"/>
<stop offset="0.309804" stop-color="#B49565"/>
<stop offset="0.509804" stop-color="#FEE1AA"/>
<stop offset="0.690196" stop-color="#B49365"/>
<stop offset="0.870588" stop-color="#AA7F4B"/>
<stop offset="1" stop-color="#CFA66D"/>
</linearGradient>
</defs>
</svg>
