<svg width="1187" height="891" viewBox="0 0 1187 891" fill="none" xmlns="http://www.w3.org/2000/svg">
<path d="M501.798 426.811V346.52H471.064V329.322H550.953V346.52H520.219V426.811H501.798ZM987.108 381.722C986.569 377.912 985.497 374.636 983.978 372.539C981.611 369.267 977.73 367.642 972.357 367.642C966.087 367.642 961.487 369.536 958.524 373.351C957.009 375.311 955.623 378.804 954.895 381.722H987.108ZM954.409 395.396C955.023 399.533 956.449 403.432 958.524 406.05C961.487 409.772 965.814 411.644 971.544 411.644C975.161 411.644 978.247 410.859 980.821 409.278C983.39 407.697 985.359 405.419 986.711 402.439L1005.12 407.719C1002.37 414.399 998.018 419.587 992.111 423.292C986.168 426.992 979.673 428.842 972.626 428.842C965.142 428.842 958.55 427.217 952.837 423.99C947.128 420.762 942.664 416.316 939.437 410.655C936.209 405.013 934.58 398.513 934.58 391.202C934.58 383.215 936.156 376.261 939.326 370.349C942.479 364.437 946.832 359.836 952.387 356.56C957.941 353.31 964.325 351.663 971.544 351.663C979.218 351.663 985.739 353.469 991.108 357.081C996.482 360.693 1000.45 365.77 1003.02 372.313C1005.6 378.857 1006.5 386.552 1005.74 395.396H954.409ZM822.009 381.722C821.471 377.912 820.402 374.636 818.879 372.539C816.512 369.267 812.631 367.642 807.258 367.642C800.988 367.642 796.388 369.536 793.425 373.351C791.91 375.311 790.524 378.804 789.796 381.722H822.009ZM789.305 395.396C789.919 399.533 791.35 403.432 793.425 406.05C796.388 409.772 800.714 411.644 806.445 411.644C810.061 411.644 813.148 410.859 815.722 409.278C818.291 407.697 820.261 405.419 821.612 402.439L840.028 407.719C837.273 414.399 832.919 419.587 827.007 423.292C821.069 426.992 814.574 428.842 807.532 428.842C800.039 428.842 793.451 427.217 787.738 423.99C782.029 420.762 777.565 416.316 774.338 410.655C771.11 405.013 769.481 398.513 769.481 391.202C769.481 383.215 771.057 376.261 774.227 370.349C777.38 364.437 781.738 359.836 787.288 356.56C792.842 353.31 799.227 351.663 806.445 351.663C814.119 351.663 820.64 353.469 826.009 357.081C831.383 360.693 835.356 365.77 837.926 372.313C840.5 378.857 841.405 386.552 840.637 395.396H789.305ZM599.419 381.722C598.885 377.912 597.812 374.636 596.293 372.539C593.922 369.267 590.041 367.642 584.663 367.642C578.398 367.642 573.793 369.536 570.831 373.351C569.321 375.311 567.938 378.804 567.206 381.722H599.419ZM566.715 395.396C567.329 399.533 568.76 403.432 570.831 406.05C573.793 409.772 578.12 411.644 583.856 411.644C587.467 411.644 590.558 410.859 593.128 409.278C595.706 407.697 597.666 405.419 599.022 402.439L617.438 407.719C614.683 414.399 610.329 419.587 604.417 423.292C598.479 426.992 591.979 428.842 584.942 428.842C577.449 428.842 570.857 427.217 565.144 423.99C559.439 420.762 554.971 416.316 551.748 410.655C548.52 405.013 546.896 398.513 546.896 391.202C546.896 383.215 548.472 376.261 551.633 370.349C554.79 364.437 559.148 359.836 564.698 356.56C570.252 353.31 576.637 351.663 583.856 351.663C591.525 351.663 598.051 353.469 603.424 357.081C608.793 360.693 612.767 365.77 615.336 372.313C617.906 378.857 618.811 386.552 618.047 395.396H566.715ZM633.275 426.811V353.694H649.528V365.457C650.071 364.507 650.892 363.236 651.559 362.362C653.135 360.286 655.069 358.569 657.378 357.218C659.14 356.132 661.047 355.297 663.127 354.666C665.211 354.079 667.348 353.694 669.564 353.513C671.776 353.381 673.988 353.425 676.191 353.694V370.892C674.16 370.26 671.811 370.035 669.136 370.238C666.429 370.441 664.01 371.073 661.846 372.11C659.678 373.104 657.842 374.411 656.362 376.058C654.875 377.704 653.74 379.647 652.981 381.881C652.208 384.138 651.828 386.641 651.828 389.44V426.811H633.275ZM707.473 424.263V459.307H688.92V353.694H705.169V357.712C705.482 357.469 706.127 356.975 706.458 356.741C711.191 353.359 717.037 351.663 723.982 351.663C730.98 351.663 737.082 353.337 742.27 356.675C747.453 360.013 751.48 364.574 754.368 370.371C757.202 376.172 758.646 382.808 758.646 390.252C758.646 397.564 757.224 404.13 754.425 409.953C751.591 415.777 747.665 420.378 742.61 423.764C737.546 427.151 731.664 428.842 724.94 428.842C718.066 428.842 712.198 427.288 707.473 424.263ZM721.951 412.457C725.929 412.457 729.183 411.468 731.7 409.481C734.234 407.494 736.106 404.832 737.329 401.445C738.539 398.085 739.148 394.359 739.148 390.252C739.148 386.191 738.526 382.491 737.254 379.104C735.996 375.744 734.049 373.06 731.408 371.051C728.772 369.042 725.39 368.048 721.284 368.048C717.439 368.048 714.335 368.976 711.986 370.826C709.615 372.676 707.88 375.267 706.789 378.61C705.716 381.948 705.169 385.829 705.169 390.252C705.169 394.677 705.716 398.558 706.789 401.896C707.88 405.238 709.663 407.834 712.123 409.684C714.555 411.534 717.845 412.457 721.951 412.457ZM872.387 389.714V426.811H853.697V353.694H870.091V361.231C871.747 359.408 873.8 357.624 875.946 356.202C880.639 353.085 886.599 351.531 893.779 351.531C899.514 351.531 904.185 352.498 907.797 354.441C911.4 356.383 914.23 358.843 916.235 361.818C918.213 364.799 919.657 367.889 920.526 371.117C921.383 374.344 921.895 377.298 922.081 379.965C922.262 382.627 922.35 384.566 922.35 385.784V426.811H903.66V392.284C903.66 390.615 903.576 388.495 903.391 385.877C903.205 383.303 902.645 380.685 901.704 378.066C900.746 375.448 899.223 373.263 897.073 371.501C894.927 369.739 891.88 368.861 887.955 368.861C886.379 368.861 884.683 369.108 882.882 369.607C881.072 370.101 879.385 371.051 877.809 372.472C876.228 373.894 874.93 375.991 873.915 378.746C872.899 381.497 872.387 385.153 872.387 389.714Z" fill="black"/>
<path d="M694.872 530.975V568.072H676.187V494.956H692.576V502.493C694.232 500.669 696.289 498.886 698.435 497.464C703.128 494.347 709.089 492.793 716.264 492.793C722.004 492.793 726.675 493.76 730.282 495.702C733.889 497.645 736.715 500.104 738.72 503.08C740.702 506.06 742.146 509.151 743.016 512.379C743.872 515.606 744.38 518.56 744.566 521.227C744.751 523.889 744.835 525.827 744.835 527.046V568.072H726.15V533.545C726.15 531.876 726.061 529.757 725.876 527.139C725.695 524.565 725.134 521.946 724.194 519.328C723.236 516.71 721.708 514.524 719.566 512.763C717.416 511.001 714.37 510.122 710.44 510.122C708.864 510.122 707.177 510.37 705.367 510.869C703.561 511.363 701.87 512.312 700.294 513.734C698.718 515.156 697.42 517.253 696.404 520.008C695.389 522.759 694.872 526.415 694.872 530.975ZM471.063 568.072V470.584H510.063C517.013 470.584 522.625 471.961 526.921 474.739C531.208 477.538 534.343 481.013 536.325 485.207C538.317 489.406 539.31 493.649 539.31 497.936C539.31 503.398 538.06 507.932 535.623 511.544C534.29 513.487 531.994 515.54 530.144 516.785C533.787 518.317 537.062 520.785 539.222 523.867C542.246 528.243 543.769 533.139 543.769 538.557C543.769 544.376 542.696 549.502 540.564 553.921C538.401 558.346 535.16 561.798 530.771 564.302C526.404 566.81 520.89 568.072 514.262 568.072H471.063ZM643.889 521.902C643.346 518.092 642.273 514.816 640.755 512.719C638.392 509.447 634.503 507.822 629.134 507.822C622.859 507.822 618.263 509.716 615.301 513.531C613.782 515.491 612.4 518.984 611.671 521.902H643.889ZM611.186 535.576C611.799 539.713 613.221 543.612 615.301 546.23C618.263 549.952 622.59 551.824 628.325 551.824C631.937 551.824 635.028 551.038 637.598 549.458C640.167 547.877 642.136 545.599 643.492 542.619L661.899 547.899C659.148 554.579 654.795 559.767 648.887 563.472C642.94 567.172 636.45 569.022 629.403 569.022C621.919 569.022 615.327 567.397 609.614 564.169C603.9 560.942 599.441 556.496 596.209 550.835C592.981 545.193 591.357 538.693 591.357 531.382C591.357 523.394 592.933 516.441 596.103 510.529C599.256 504.616 603.609 500.016 609.159 496.74C614.714 493.49 621.098 491.843 628.325 491.843C635.995 491.843 642.512 493.649 647.885 497.261C653.263 500.872 657.228 505.95 659.806 512.493C662.376 519.037 663.281 526.732 662.513 535.576H611.186ZM874.281 570.103C865.071 570.103 857.622 568.006 851.984 563.829C846.324 559.679 842.871 553.767 841.652 546.138L860.47 543.294C861.229 546.725 862.951 549.409 865.583 551.352C868.223 553.29 871.574 554.261 875.636 554.261C878.974 554.261 881.544 553.608 883.354 552.323C885.151 551.056 886.056 549.25 886.056 546.95C886.056 545.506 885.69 544.332 884.979 543.453C884.246 542.574 882.643 541.713 880.149 540.857C877.619 540 873.738 538.87 868.462 537.47C862.501 535.938 857.732 534.225 854.174 532.327C850.602 530.432 848.032 528.176 846.456 525.514C844.88 522.896 844.081 519.69 844.081 515.946C844.081 511.253 845.286 507.164 847.666 503.711C850.063 500.285 853.454 497.619 857.807 495.724C862.161 493.874 867.287 492.925 873.19 492.925C878.93 492.925 884.003 493.808 888.432 495.565C892.843 497.327 896.441 499.83 899.17 503.08C901.894 506.33 903.572 510.166 904.194 514.591L885.385 517.977C885.067 515.266 883.893 513.125 881.862 511.544C879.831 509.963 877.08 509.041 873.605 508.767C870.219 508.542 867.504 508.992 865.451 510.122C863.406 511.253 862.368 512.873 862.368 514.997C862.368 516.26 862.819 517.319 863.698 518.18C864.567 519.037 866.404 519.915 869.181 520.821C871.932 521.721 876.175 522.896 881.862 524.339C887.416 525.783 891.88 527.474 895.245 529.373C898.609 531.311 901.037 533.616 902.578 536.278C904.106 538.963 904.883 542.212 904.883 546.001C904.883 553.493 902.163 559.383 896.759 563.671C891.341 567.958 883.84 570.103 874.281 570.103ZM810.512 563.869C810.136 564.16 809.341 564.748 808.944 565.026C804.079 568.412 797.999 570.103 790.731 570.103C784.007 570.103 778.126 568.412 773.075 565.026C768.01 561.639 764.085 557.039 761.273 551.215C758.452 545.391 757.03 538.826 757.03 531.514C757.03 524.07 758.474 517.434 761.335 511.632C764.196 505.835 768.222 501.274 773.402 497.936C778.603 494.598 784.696 492.925 791.69 492.925C798.127 492.925 803.628 494.382 808.163 497.287L808.198 470.584H826.751V568.072H810.512V563.869ZM793.721 553.718C797.827 553.718 801.121 552.796 803.575 550.946C806.035 549.096 807.796 546.499 808.887 543.157C809.96 539.819 810.512 535.938 810.512 531.514C810.512 527.09 809.96 523.209 808.887 519.871C807.796 516.529 806.088 513.937 803.708 512.087C801.35 510.237 798.233 509.31 794.391 509.31C790.281 509.31 786.908 510.303 784.29 512.312C781.649 514.321 779.68 517.006 778.422 520.366C777.159 523.752 776.527 527.452 776.527 531.514C776.527 535.62 777.137 539.347 778.347 542.707C779.57 546.093 781.442 548.756 783.972 550.743C786.493 552.729 789.742 553.718 793.721 553.718ZM558.666 568.072V468.553H577.087V568.072H558.666ZM489.749 550.743H512.368C514.849 550.743 517.062 550.199 518.991 549.14C520.938 548.102 522.466 546.61 523.583 544.672C524.678 542.751 525.23 540.495 525.23 537.877C525.23 535.576 524.757 533.523 523.799 531.717C522.859 529.911 521.437 528.49 519.521 527.408C517.6 526.371 515.203 525.827 512.368 525.827H489.749V550.743ZM489.749 508.635H509.794C511.86 508.635 513.719 508.272 515.335 507.548C516.96 506.829 518.258 505.698 519.203 504.188C520.143 502.674 520.62 500.736 520.62 498.342C520.62 495.362 519.702 492.859 517.843 490.828C515.998 488.797 513.304 487.781 509.794 487.781H489.749V508.635Z" fill="black"/>
<path fill-rule="evenodd" clip-rule="evenodd" d="M267.115 358.358H219.748V311H181V358.358V397.119V444.477H219.748V397.119H267.115V358.358Z" fill="black"/>
<path fill-rule="evenodd" clip-rule="evenodd" d="M291.045 358.357C351.834 358.357 401.104 407.632 401.104 468.416C401.104 529.196 351.834 578.475 291.045 578.475C230.265 578.475 181 529.196 181 468.416H219.66C219.66 507.844 251.626 539.811 291.045 539.811C330.478 539.811 362.44 507.844 362.44 468.416C362.44 428.984 330.478 397.022 291.045 397.022V358.357Z" fill="url(#paint0_linear_16232_835)"/>
<defs>
<linearGradient id="paint0_linear_16232_835" x1="171.516" y1="336.899" x2="412.005" y2="600.754" gradientUnits="userSpaceOnUse">
<stop stop-color="#FEE1AA"/>
<stop offset="0.14902" stop-color="#AA7E4C"/>
<stop offset="0.309804" stop-color="#B49565"/>
<stop offset="0.509804" stop-color="#FEE1AA"/>
<stop offset="0.690196" stop-color="#B49365"/>
<stop offset="0.870588" stop-color="#AA7F4B"/>
<stop offset="1" stop-color="#CFA66D"/>
</linearGradient>
</defs>
</svg>
